<?xml version="1.0" encoding="UTF-8"?>
<svg xmlns="http://www.w3.org/2000/svg" xmlns:xlink="http://www.w3.org/1999/xlink" viewBox="0 0 90 90" width="90px" height="90px">
<g id="surface637681">
<path style=" stroke:none;fill-rule:nonzero;fill:rgb(0%,0%,0%);fill-opacity:1;" d="M 69 9 C 62.371094 9 57 14.371094 57 21 C 57.003906 21.84375 57.101562 22.683594 57.28125 23.507812 L 30.035156 37.132812 C 27.761719 34.511719 24.46875 33.007812 21 33 C 14.371094 33 9 38.371094 9 45 C 9 51.628906 14.371094 57 21 57 C 24.46875 56.996094 27.765625 55.492188 30.042969 52.875 L 57.269531 66.492188 C 57.09375 67.316406 57 68.15625 57 69 C 57 75.628906 62.371094 81 69 81 C 75.628906 81 81 75.628906 81 69 C 81 62.371094 75.628906 57 69 57 C 65.53125 57.003906 62.234375 58.507812 59.957031 61.125 L 32.730469 47.507812 C 32.90625 46.683594 33 45.84375 33 45 C 32.996094 44.160156 32.898438 43.320312 32.71875 42.5 L 59.964844 28.875 C 62.238281 31.492188 65.535156 32.996094 69 33 C 75.628906 33 81 27.628906 81 21 C 81 14.371094 75.628906 9 69 9 Z M 69 9 "/>
</g>
</svg>
