<svg width="100" height="100" viewBox="0 0 100 100" fill="none" xmlns="http://www.w3.org/2000/svg">
<path d="M50.0007 8.33325C41.7598 8.33325 33.704 10.777 26.8519 15.3554C19.9999 19.9337 14.6593 26.4412 11.5057 34.0548C8.35204 41.6684 7.5269 50.0461 9.13462 58.1287C10.7423 66.2112 14.7107 73.6355 20.5379 79.4627C26.3651 85.2899 33.7894 89.2583 41.8719 90.866C49.9544 92.4737 58.3322 91.6486 65.9458 88.4949C73.5594 85.3412 80.0668 80.0007 84.6452 73.1487C89.2236 66.2966 91.6673 58.2408 91.6673 49.9999C91.6673 44.5282 90.5896 39.11 88.4957 34.0548C86.4017 28.9995 83.3326 24.4062 79.4634 20.5371C75.5943 16.668 71.001 13.5989 65.9458 11.5049C60.8906 9.41099 55.4724 8.33325 50.0007 8.33325ZM50.0007 83.3333C43.408 83.3333 36.9633 81.3783 31.4817 77.7156C26 74.0529 21.7276 68.8469 19.2047 62.756C16.6818 56.6652 16.0217 49.9629 17.3078 43.4969C18.594 37.0309 21.7687 31.0914 26.4304 26.4297C31.0922 21.7679 37.0316 18.5933 43.4977 17.3071C49.9637 16.0209 56.6659 16.681 62.7568 19.2039C68.8477 21.7269 74.0536 25.9993 77.7163 31.4809C81.379 36.9625 83.334 43.4072 83.334 49.9999C83.334 58.8405 79.8221 67.3189 73.5709 73.5701C67.3197 79.8214 58.8412 83.3333 50.0007 83.3333Z" fill="#7936FC"/>
<path d="M50.0007 45.8333C41.6673 45.8333 41.6673 43.2083 41.6673 41.6667C41.6673 40.125 44.584 37.5 50.0007 37.5C55.4173 37.5 55.7923 40.1667 55.834 41.6667H64.1673C64.111 38.8281 63.0901 36.0934 61.2725 33.9123C59.455 31.7313 56.9492 30.2339 54.1673 29.6667V25H45.834V29.5417C37.5007 30.9167 33.334 36.2917 33.334 41.6667C33.334 46.3333 35.5007 54.1667 50.0007 54.1667C58.334 54.1667 58.334 57 58.334 58.3333C58.334 59.6667 55.7507 62.5 50.0007 62.5C42.334 62.5 41.6673 58.9167 41.6673 58.3333H33.334C33.334 62.1667 36.084 68.9583 45.834 70.5V75H54.1673V70.5C62.5007 69.0833 66.6673 63.7083 66.6673 58.3333C66.6673 53.6667 64.5007 45.8333 50.0007 45.8333Z" fill="#7936FC"/>
</svg>
