<svg width="100" height="100" viewBox="0 0 100 100" fill="none" xmlns="http://www.w3.org/2000/svg">
<path d="M37.1793 0C27.6493 0 18.1183 3.624 10.8693 10.871C-3.6257 25.366 -3.6257 48.993 10.8693 63.488C24.4393 77.057 45.9693 77.855 60.5563 66.016L64.1323 69.592C63.93 70.3192 63.883 71.0189 63.9945 71.6427C64.1061 72.2666 64.3735 72.7996 64.7783 73.205L90.7303 99.156C91.4723 99.8977 92.6276 100.165 93.9422 99.8997C95.2569 99.6341 96.623 98.8573 97.7403 97.74C98.8575 96.6226 99.6343 95.2563 99.8996 93.9417C100.165 92.6271 99.8972 91.4718 99.1553 90.73L73.2053 64.78C72.7998 64.3745 72.2664 64.1066 71.642 63.9949C71.0177 63.8832 70.3172 63.9303 69.5893 64.133L66.0133 60.557C77.8533 45.969 77.0563 24.439 63.4873 10.871C56.2403 3.624 46.7093 0.001 37.1793 0.001V0ZM37.1793 8.217C44.5763 8.217 51.9743 11.051 57.6423 16.719C60.3369 19.4019 62.475 22.5906 63.934 26.1021C65.3929 29.6135 66.144 33.3785 66.144 37.181C66.144 40.9835 65.3929 44.7485 63.934 48.2599C62.475 51.7714 60.3369 54.9601 57.6423 57.643C54.9594 60.3376 51.7707 62.4757 48.2592 63.9347C44.7478 65.3936 40.9828 66.1447 37.1803 66.1447C33.3778 66.1447 29.6128 65.3936 26.1014 63.9347C22.5899 62.4757 19.4012 60.3376 16.7183 57.643C14.0237 54.9601 11.8856 51.7714 10.4266 48.2599C8.96765 44.7485 8.21662 40.9835 8.21662 37.181C8.21662 33.3785 8.96765 29.6135 10.4266 26.1021C11.8856 22.5906 14.0237 19.4019 16.7183 16.719C22.3863 11.051 29.7823 8.217 37.1783 8.217H37.1793Z" fill="#7936FC"/>
</svg>
