<svg width="100" height="100" viewBox="0 0 100 100" fill="none" xmlns="http://www.w3.org/2000/svg">
<path d="M47.1814 62.9875C50.0564 64.125 52.6814 65.6375 55.0439 67.5188C57.4064 69.3938 59.4251 71.5813 61.1064 74.0563C64.5353 79.0504 66.3821 84.9608 66.4064 91.0187V93.75H60.9376V91.0125C60.9493 87.7801 60.317 84.5778 59.0776 81.5925C57.8382 78.6071 56.0165 75.8986 53.7189 73.625C51.4636 71.4018 48.8115 69.621 45.9001 68.375C42.8742 67.0786 39.617 66.4089 36.3251 66.4062C33.0927 66.3945 29.8904 67.0269 26.9051 68.2663C23.9197 69.5057 21.2112 71.3274 18.9376 73.625C16.715 75.8808 14.9344 78.5327 13.6876 81.4437C12.4001 84.4062 11.7501 87.6 11.7189 91.0125V93.75H6.2501V91.0125C6.23412 84.9503 8.08457 79.0302 11.5501 74.0563C15.0019 69.0762 19.8487 65.2275 25.4814 62.9938C24.2018 62.1145 23.0366 61.0795 22.0126 59.9125C21.0008 58.7637 20.1262 57.5011 19.4064 56.15C18.6894 54.8002 18.1435 53.3662 17.7814 51.8812C17.4121 50.3686 17.2129 48.8194 17.1876 47.2625C17.1876 44.6187 17.6876 42.1375 18.6876 39.8312C20.643 35.262 24.282 31.6207 28.8501 29.6625C31.2068 28.6593 33.7406 28.1385 36.3019 28.131C38.8632 28.1235 41.4001 28.6294 43.7626 29.6187C48.333 31.5756 51.9745 35.2171 53.9314 39.7875C55.5497 43.5932 55.8939 47.8201 54.9126 51.8375C54.5376 53.3187 53.9876 54.7437 53.2501 56.1125C52.5173 57.4672 51.6437 58.741 50.6438 59.9125C49.6438 61.0813 48.4876 62.1 47.1814 62.9875ZM36.3251 60.9375C38.2064 60.9375 39.9751 60.5812 41.6251 59.875C44.8965 58.4849 47.5004 55.8789 48.8876 52.6062C49.6314 50.925 50.0001 49.1438 50.0001 47.2688C50.0081 45.479 49.6565 43.7059 48.9662 42.0547C48.2758 40.4034 47.2608 38.9077 45.9813 37.6562C44.7158 36.4222 43.2407 35.4233 41.6251 34.7062C39.958 33.9617 38.1509 33.5823 36.3251 33.5938C34.4501 33.5938 32.6814 33.95 31.0314 34.6562C27.7419 36.0593 25.1219 38.6793 23.7189 41.9688C23.0126 43.6188 22.6564 45.3875 22.6564 47.2688C22.6564 49.1438 23.0126 50.9125 23.7189 52.5625C24.4376 54.2125 25.4064 55.6688 26.6314 56.9188C27.8995 58.2002 29.4107 59.2158 31.0763 59.9058C32.7419 60.5959 34.5285 60.9466 36.3314 60.9375H36.3251ZM93.7501 6.25V50H82.8126L66.4064 66.4062V50H60.9376V44.5312H71.8751V53.2062L80.5501 44.5312H88.2813V11.7188H33.5939V21.5437C32.6772 21.6596 31.7642 21.8034 30.8564 21.975C29.9254 22.1517 29.0116 22.409 28.1251 22.7437V6.25H93.7501Z" fill="#7936FC"/>
</svg>
