<svg width="234" height="182" viewBox="0 0 234 182" fill="none" xmlns="http://www.w3.org/2000/svg">
<g clip-path="url(#clip0_666_465)">
<path d="M28.0766 136.441C27.8772 136.45 27.6798 136.399 27.5111 136.294C27.3424 136.189 27.2106 136.036 27.1336 135.855C27.0566 135.675 27.0381 135.475 27.0805 135.283C27.123 135.092 27.2244 134.918 27.371 134.785C27.3955 134.689 27.4131 134.62 27.4377 134.525C27.4289 134.504 27.4201 134.483 27.4112 134.462C27.2103 133.996 26.8736 133.599 26.4435 133.321C26.0133 133.042 25.5089 132.894 24.9936 132.896C24.4783 132.898 23.975 133.049 23.547 133.331C23.119 133.613 22.7853 134.012 22.5879 134.48C21.7991 136.344 20.7947 138.212 20.5474 140.184C20.4385 141.056 20.4844 141.939 20.6832 142.795C18.8304 138.828 17.8682 134.517 17.862 130.153C17.8616 129.058 17.9236 127.964 18.0477 126.875C18.1503 125.983 18.2925 125.097 18.4745 124.218C19.4676 119.446 21.5998 114.973 24.6959 111.167C26.1945 110.365 27.4064 109.131 28.1683 107.631C28.4444 107.092 28.6394 106.517 28.7475 105.923C28.5785 105.945 28.4067 105.958 28.2376 105.969C28.185 105.972 28.1295 105.975 28.0769 105.977L28.057 105.978C27.8712 105.986 27.687 105.942 27.5265 105.85C27.366 105.757 27.2361 105.622 27.1523 105.459C27.0686 105.296 27.0347 105.112 27.0546 104.931C27.0746 104.749 27.1475 104.577 27.2647 104.436C27.3377 104.348 27.4107 104.259 27.4838 104.171C27.5947 104.035 27.7083 103.902 27.8191 103.766C27.8319 103.753 27.844 103.739 27.8552 103.725C27.9827 103.57 28.1101 103.418 28.2376 103.263C28.0049 102.908 27.6919 102.611 27.3231 102.395C26.0455 101.661 24.283 102.169 23.3602 103.304C22.4346 104.438 22.26 106.029 22.5815 107.446C22.8976 108.652 23.4205 109.796 24.1278 110.83C24.0585 110.917 23.9865 111.001 23.9172 111.088C22.6507 112.687 21.5469 114.403 20.6216 116.213C20.8466 114.185 20.578 112.134 19.8379 110.229C19.0878 108.453 17.6819 106.957 16.4438 105.422C14.9567 103.577 11.9072 104.382 11.6452 106.72C11.6427 106.743 11.6402 106.765 11.6378 106.788C11.8217 106.89 12.0017 106.998 12.1778 107.112C12.3991 107.257 12.5705 107.465 12.6697 107.707C12.7689 107.949 12.7911 108.215 12.7336 108.47C12.676 108.725 12.5413 108.957 12.3471 109.136C12.1529 109.315 11.9083 109.431 11.6453 109.471L11.6184 109.475C11.6839 110.126 11.7997 110.771 11.9648 111.404C12.4432 113.172 13.2885 114.824 14.4478 116.256C15.607 117.688 17.0553 118.87 18.7017 119.727C18.8098 119.781 18.9151 119.836 19.0232 119.888C18.0935 122.473 17.5103 125.167 17.2884 127.901C17.1627 129.513 17.1701 131.133 17.3105 132.745L17.3022 132.688C16.9475 130.896 15.9735 129.279 14.5448 128.11C12.4228 126.399 9.42489 125.769 7.13566 124.394C6.89237 124.241 6.60949 124.159 6.32037 124.158C6.03125 124.157 5.74796 124.238 5.50391 124.39C5.25986 124.542 5.06523 124.76 4.94298 125.017C4.82072 125.274 4.77594 125.56 4.81392 125.841C4.81699 125.861 4.82011 125.881 4.82328 125.901C5.16453 126.038 5.4968 126.195 5.81815 126.372C6.00204 126.474 6.18206 126.582 6.35818 126.696C6.57945 126.841 6.75089 127.049 6.85006 127.291C6.94923 127.533 6.97149 127.8 6.91393 128.055C6.85637 128.31 6.72168 128.541 6.52749 128.72C6.33331 128.899 6.08869 129.016 5.82569 129.055L5.79875 129.059C5.77934 129.062 5.76272 129.065 5.74335 129.068C6.32643 130.434 7.14481 131.692 8.16264 132.786C9.42 134.11 10.9397 135.168 12.6285 135.896C14.3174 136.623 16.1397 137.004 17.984 137.015H17.9867C18.4874 139.151 19.2127 141.229 20.1511 143.217H27.8829C27.9106 143.133 27.9355 143.046 27.9605 142.961C27.2448 143.005 26.5263 142.963 25.8211 142.836C26.3947 142.145 26.9684 141.449 27.542 140.758C27.5548 140.745 27.5668 140.732 27.578 140.717C27.869 140.364 28.1628 140.013 28.4538 139.659L28.4539 139.659C28.4694 138.575 28.3427 137.494 28.0769 136.441L28.0766 136.441Z" fill="#F2F2F2"/>
<path d="M119.259 143.32C119.259 143.361 119.251 143.402 119.235 143.441C119.219 143.479 119.195 143.514 119.165 143.543C119.135 143.572 119.1 143.596 119.061 143.611C119.022 143.627 118.98 143.635 118.938 143.635H1.09802C1.01297 143.635 0.931411 143.602 0.871272 143.543C0.811133 143.484 0.777344 143.404 0.777344 143.32C0.777344 143.236 0.811133 143.156 0.871272 143.097C0.931411 143.038 1.01297 143.005 1.09802 143.005H118.938C118.98 143.005 119.022 143.013 119.061 143.029C119.1 143.044 119.135 143.068 119.165 143.097C119.195 143.126 119.219 143.161 119.235 143.199C119.251 143.238 119.259 143.279 119.259 143.32Z" fill="#CCCCCC"/>
<path d="M62.4835 102.889C62.0397 102.785 61.578 102.777 61.1309 102.867C60.6839 102.957 60.2623 103.142 59.896 103.409C59.5296 103.676 59.2274 104.018 59.0105 104.413C58.7937 104.807 58.6675 105.243 58.6409 105.69L51.9043 107.991L52.3305 112.35L61.7975 108.969C62.5657 108.963 63.3051 108.681 63.8755 108.176C64.4458 107.671 64.8076 106.978 64.8921 106.228C64.9767 105.479 64.7782 104.725 64.3343 104.109C63.8903 103.494 63.2318 103.06 62.4835 102.889V102.889Z" fill="#FFB6B6"/>
<path d="M51.5046 115.559C48.826 117.391 44.1069 118.329 37.6843 118.286C37.3287 118.287 36.9768 118.215 36.6509 118.076C36.3249 117.936 36.032 117.732 35.7908 117.475C34.0723 115.719 34.1394 111.709 34.1501 111.322L32.2664 104.355C32.2261 104.248 31.1835 101.389 32.2442 99.3928C32.4698 98.9758 32.7848 98.6117 33.1675 98.3255C33.5501 98.0393 33.9913 97.8378 34.4608 97.7348C38.4444 96.6973 42.1891 107.163 42.6649 108.546L48.2552 107.612L52.1159 107.456L56.0437 105.328L58.2551 110.523L52.7825 114.448C52.4049 114.869 51.9757 115.242 51.5046 115.559Z" fill="#2F2E41"/>
<path d="M62.291 173.17L66.4089 173.359L69.1107 157.859L63.0332 157.58L62.291 173.17Z" fill="#FFB6B6"/>
<path d="M61.3635 171.129L67.8912 171.046L67.7608 173.784L73.7496 178.263C74.0455 178.484 74.2615 178.792 74.3662 179.143C74.4709 179.493 74.4588 179.867 74.3317 180.21C74.2046 180.553 73.969 180.847 73.6595 181.049C73.35 181.252 72.9827 181.352 72.6112 181.335L64.8614 180.979L63.6546 178.21L63.004 180.894L60.082 180.759L61.3635 171.129Z" fill="#2F2E41"/>
<path d="M105.284 139.89L106.784 136.121L92.6876 128.648L85.5664 133.042L105.284 139.89Z" fill="#FFB6B6"/>
<path d="M103.018 140.098L105.027 134.002L107.627 134.999L113.868 130.864C114.176 130.659 114.543 130.557 114.914 130.572C115.286 130.586 115.643 130.717 115.933 130.945C116.224 131.173 116.432 131.486 116.528 131.839C116.625 132.192 116.604 132.565 116.468 132.905L113.645 139.998L110.586 140.234L112.968 141.698L111.903 144.372L103.018 140.098Z" fill="#2F2E41"/>
<path d="M24.3008 128.673C24.3008 128.673 26.011 139.39 34.0954 140.183C42.1797 140.977 49.6317 137.402 49.6317 137.402L72.2679 130.559C72.2679 130.559 96.3448 137.274 100.387 138.332C100.387 138.332 103.175 132.12 103.082 131.719C102.222 128.027 101.102 130.525 101.102 130.525L75.5016 119.416C75.5016 119.416 71.4595 118.358 64.453 121.268C57.4466 124.177 38.6765 131.19 38.6765 131.19L24.3008 128.673Z" fill="#2F2E41"/>
<path d="M24.3944 128.016C24.3944 128.016 23.0461 140.854 30.9212 142.815C38.4072 144.679 48.7332 142.767 48.7332 142.767L61.0434 141.505C61.0434 141.505 61.5823 157.03 61.5823 164.7C64.0835 165.034 66.6037 165.211 69.1277 165.229C69.6667 165.229 69.7024 164.952 69.7024 164.952L70.746 138.121C70.8193 136.954 70.643 135.786 70.2284 134.69C69.8137 133.594 69.17 132.596 68.3386 131.759C67.5072 130.923 66.5065 130.266 65.401 129.832C64.2954 129.397 63.1095 129.195 61.9195 129.238C61.3384 129.26 60.7288 129.3 60.0907 129.359C52.5177 130.072 43.1161 128.557 43.1161 128.557L24.3944 128.016Z" fill="#2F2E41"/>
<path d="M46.2388 109.393C46.2388 109.393 49.4359 128.369 47.2753 129.884C45.1148 131.398 42.1518 131.404 42.1518 131.404L41.4629 120.927L46.2388 109.393Z" fill="#2F2E41"/>
<path d="M40.9062 86.0879L45.1809 90.0747C47.1677 91.9278 48.4847 94.3662 48.9321 97.0203C49.3795 99.6743 48.9329 102.399 47.66 104.782L45.6167 108.606L40.9062 86.0879Z" fill="#2F2E41"/>
<path d="M39.9512 86.7583L45.7433 93.2337C47.0145 94.6548 47.8023 96.4299 47.9968 98.3113C48.0851 99.1657 48.0496 100.028 47.8913 100.873L45.7085 112.519L44.0678 129.339C44.0678 129.339 31.4014 133.106 30.105 127.289C28.8085 121.473 39.9512 86.7583 39.9512 86.7583Z" fill="#7936FC"/>
<path d="M34.5129 130.92C26.1866 129.558 24.1469 129.287 24.0199 129.24L23.8926 129.192L24.7272 124.277L28.2513 115.777C28.4802 112.997 29.9645 109.23 29.1154 106.204C26.6467 97.4076 30.6575 84.9774 32.4916 84.0252L37.5765 80.7534L39.3614 82.3596L42.4562 86.6119C45.0025 97.7448 46.7611 108.121 46.6756 108.756L45.104 119.655L43.2522 123.835C37.6342 126.496 41.4119 132.048 34.5129 130.92Z" fill="#2F2E41"/>
<path d="M49.589 122.924L62.6625 119.491L63.8136 119.223L64.6344 119.031L65.5909 118.81L65.5986 118.808C65.7376 118.777 65.8834 118.8 66.0047 118.874L70.859 124.587C70.9029 124.613 70.9416 124.647 70.9732 124.687C70.9862 124.698 70.9978 124.71 71.0077 124.723C71.0614 124.795 71.0963 124.879 71.1092 124.967C71.1222 125.055 71.1128 125.145 71.082 125.229C71.0511 125.313 70.9997 125.388 70.9323 125.448C70.8649 125.508 70.7836 125.55 70.6954 125.572L51.1925 129.977C51.0914 130 50.986 129.994 50.8882 129.96C50.7905 129.926 50.7046 129.866 50.6403 129.786L50.4424 129.534L49.3631 124.433L49.2863 123.771C49.2374 123.709 49.2028 123.638 49.1852 123.562C49.1538 123.425 49.1785 123.281 49.2541 123.162C49.3296 123.043 49.4499 122.957 49.589 122.924Z" fill="#E6E6E6"/>
<path opacity="0.17" d="M50.4414 129.534L50.6405 129.786C50.7046 129.866 50.7904 129.926 50.8878 129.96C50.9852 129.994 51.0904 130 51.1913 129.978L70.6949 125.572C70.783 125.551 70.8644 125.508 70.9318 125.448C70.9992 125.389 71.0505 125.313 71.0814 125.23C71.1122 125.146 71.1214 125.056 71.1084 124.967C71.0953 124.879 71.0604 124.796 71.0065 124.724C70.9971 124.71 70.9856 124.698 70.9725 124.688L50.4414 129.534Z" fill="black"/>
<path d="M65.4923 118.772L65.1395 94.3687C65.1247 94.2218 65.1699 94.0751 65.2653 93.9609L67.7644 88.8558L68.024 88.5462C68.1205 88.433 68.2584 88.3614 68.4081 88.3469L68.952 88.2971C69.1019 88.2827 69.2514 88.3272 69.3678 88.421C69.4842 88.5148 69.5578 88.6501 69.5725 88.7971L70.0624 114.618L70.0629 114.62L70.3056 117.106L70.5931 120.058L70.594 120.062L71.0429 124.655C71.0513 124.734 71.0423 124.813 71.0163 124.888C70.9904 124.963 70.9483 125.031 70.8928 125.089C70.8387 125.146 70.7726 125.192 70.699 125.223C70.6254 125.254 70.5459 125.27 70.4658 125.268L70.1119 125.261C69.9761 125.257 69.846 125.207 69.7443 125.119L69.5464 124.944L69.4547 124.862L65.68 119.135C65.5728 119.042 65.5057 118.912 65.4923 118.772Z" fill="#E6E6E6"/>
<path opacity="0.17" d="M67.7656 88.8556L69.4545 124.863L69.5469 124.944L69.7442 125.118C69.8457 125.207 69.976 125.257 70.1119 125.26L70.4663 125.267C70.5465 125.269 70.626 125.253 70.6997 125.222C70.7735 125.191 70.8397 125.146 70.8942 125.088C70.9487 125.03 70.9901 124.962 71.0158 124.887C71.0415 124.813 71.0509 124.734 71.0433 124.655L69.5722 88.7978C69.5577 88.6506 69.4844 88.5151 69.3682 88.421C69.252 88.3269 69.1025 88.2819 68.9526 88.296L68.4076 88.3472C68.3335 88.3539 68.2616 88.375 68.196 88.4093C68.1304 88.4435 68.0724 88.4902 68.0253 88.5467L67.7656 88.8556Z" fill="black"/>
<path d="M67.9085 90.3105L65.623 95.8478L65.9057 112.412L68.3801 115.925L67.9085 90.3105Z" fill="#7936FC"/>
<path d="M51.0944 122.778C50.9693 122.813 50.8635 122.895 50.8002 123.007C50.737 123.118 50.7214 123.25 50.757 123.372L51.7639 127.491L52.7073 127.227L51.7004 123.109C51.6647 122.986 51.5809 122.882 51.4672 122.82C51.3536 122.758 51.2195 122.743 51.0944 122.778Z" fill="#2F2E41"/>
<path d="M52.9811 122.25C52.856 122.285 52.7502 122.368 52.687 122.479C52.6237 122.591 52.6081 122.722 52.6437 122.845L52.8586 123.586L53.802 123.322L53.5871 122.581C53.5515 122.459 53.4676 122.355 53.3539 122.293C53.2403 122.231 53.1062 122.215 52.9811 122.25Z" fill="#2F2E41"/>
<path d="M54.8678 121.723C54.7427 121.758 54.6369 121.84 54.5737 121.952C54.5104 122.063 54.4949 122.195 54.5304 122.318L54.7453 123.059L55.6888 122.795L55.4739 122.054C55.4382 121.931 55.3543 121.827 55.2407 121.765C55.127 121.703 54.9929 121.688 54.8678 121.723Z" fill="#2F2E41"/>
<path d="M56.7545 121.196C56.6295 121.231 56.5237 121.313 56.4604 121.424C56.3971 121.536 56.3816 121.668 56.4171 121.79L56.6321 122.531L57.5755 122.268L57.3606 121.527C57.3249 121.404 57.241 121.3 57.1274 121.238C57.0137 121.176 56.8796 121.161 56.7545 121.196Z" fill="#2F2E41"/>
<path d="M58.6432 120.668C58.5181 120.703 58.4123 120.786 58.3491 120.897C58.2858 121.009 58.2702 121.14 58.3058 121.263L58.5207 122.004L59.4641 121.74L59.2492 120.999C59.2136 120.877 59.1297 120.773 59.0161 120.711C58.9024 120.649 58.7683 120.633 58.6432 120.668Z" fill="#2F2E41"/>
<path d="M60.5299 120.141C60.4048 120.176 60.299 120.258 60.2358 120.37C60.1725 120.481 60.157 120.613 60.1925 120.736L60.4074 121.477L61.3509 121.213L61.136 120.472C61.1003 120.349 61.0164 120.245 60.9028 120.183C60.7891 120.121 60.655 120.106 60.5299 120.141Z" fill="#2F2E41"/>
<path d="M62.4166 119.614C62.2916 119.649 62.1858 119.731 62.1225 119.842C62.0592 119.954 62.0437 120.086 62.0793 120.208L62.2942 120.949L63.2376 120.686L63.0227 119.945C62.987 119.822 62.9031 119.718 62.7895 119.656C62.6759 119.594 62.5417 119.579 62.4166 119.614Z" fill="#2F2E41"/>
<path d="M64.3034 119.086C64.1783 119.121 64.0725 119.204 64.0092 119.315C63.946 119.427 63.9304 119.558 63.966 119.681L64.1809 120.422L65.1243 120.158L64.9094 119.417C64.8737 119.295 64.7898 119.191 64.6762 119.129C64.5626 119.067 64.4285 119.051 64.3034 119.086Z" fill="#2F2E41"/>
<path d="M53.3776 123.939C53.2525 123.974 53.1467 124.057 53.0834 124.168C53.0202 124.28 53.0046 124.411 53.0402 124.534L53.2551 125.275L54.1985 125.011L53.9836 124.27C53.9479 124.148 53.8641 124.044 53.7504 123.982C53.6368 123.92 53.5027 123.904 53.3776 123.939Z" fill="#2F2E41"/>
<path d="M55.2643 123.412C55.1392 123.447 55.0334 123.529 54.9702 123.641C54.9069 123.752 54.8913 123.884 54.9269 124.007L55.1418 124.748L56.0852 124.484L55.8703 123.743C55.8347 123.62 55.7508 123.516 55.6371 123.454C55.5235 123.392 55.3894 123.377 55.2643 123.412Z" fill="#2F2E41"/>
<path d="M57.151 122.885C57.0259 122.92 56.9201 123.002 56.8569 123.113C56.7936 123.225 56.7781 123.357 56.8136 123.479L57.0285 124.22L57.972 123.957L57.7571 123.216C57.7214 123.093 57.6375 122.989 57.5239 122.927C57.4102 122.865 57.2761 122.85 57.151 122.885Z" fill="#2F2E41"/>
<path d="M59.0378 122.357C58.9127 122.392 58.8069 122.475 58.7436 122.586C58.6803 122.698 58.6648 122.829 58.7003 122.952L58.9153 123.693L59.8587 123.429L59.6438 122.688C59.6081 122.566 59.5242 122.462 59.4106 122.4C59.297 122.338 59.1629 122.322 59.0378 122.357Z" fill="#2F2E41"/>
<path d="M60.9245 121.83C60.7994 121.865 60.6936 121.947 60.6303 122.059C60.5671 122.17 60.5515 122.302 60.5871 122.425L60.802 123.166L61.7454 122.902L61.5305 122.161C61.4948 122.038 61.411 121.934 61.2973 121.872C61.1837 121.81 61.0496 121.795 60.9245 121.83Z" fill="#2F2E41"/>
<path d="M62.8112 121.303C62.6861 121.338 62.5803 121.42 62.517 121.531C62.4538 121.643 62.4382 121.775 62.4738 121.897L62.6887 122.638L63.6321 122.374L63.4172 121.634C63.3816 121.511 63.2977 121.407 63.184 121.345C63.0704 121.283 62.9363 121.268 62.8112 121.303Z" fill="#2F2E41"/>
<path d="M64.6979 120.775C64.5728 120.81 64.467 120.893 64.4038 121.004C64.3405 121.116 64.3249 121.247 64.3605 121.37L64.5754 122.111L65.5188 121.847L65.3039 121.106C65.2683 120.984 65.1844 120.88 65.0708 120.818C64.9571 120.756 64.823 120.74 64.6979 120.775Z" fill="#2F2E41"/>
<path d="M53.7741 125.628C53.649 125.663 53.5432 125.746 53.4799 125.857C53.4167 125.969 53.4011 126.1 53.4367 126.223L53.6516 126.964L54.595 126.7L54.3801 125.959C54.3444 125.837 54.2606 125.733 54.1469 125.671C54.0333 125.609 53.8992 125.593 53.7741 125.628Z" fill="#2F2E41"/>
<path d="M55.6608 125.101C55.5357 125.136 55.4299 125.218 55.3666 125.33C55.3034 125.441 55.2878 125.573 55.3234 125.696L55.5383 126.436L56.4817 126.173L56.2668 125.432C56.2312 125.309 56.1473 125.205 56.0336 125.143C55.92 125.081 55.7859 125.066 55.6608 125.101Z" fill="#2F2E41"/>
<path d="M57.5475 124.574C57.4224 124.609 57.3166 124.691 57.2534 124.802C57.1901 124.914 57.1745 125.046 57.2101 125.168L57.425 125.909L58.3684 125.645L58.1535 124.905C58.1179 124.782 58.034 124.678 57.9204 124.616C57.8067 124.554 57.6726 124.539 57.5475 124.574Z" fill="#2F2E41"/>
<path d="M59.4342 124.046C59.3091 124.081 59.2033 124.164 59.1401 124.275C59.0768 124.387 59.0613 124.518 59.0968 124.641L59.3117 125.382L60.2551 125.118L60.0402 124.377C60.0046 124.255 59.9207 124.151 59.8071 124.089C59.6934 124.027 59.5593 124.011 59.4342 124.046Z" fill="#2F2E41"/>
<path d="M61.3209 123.519C61.1959 123.554 61.0901 123.636 61.0268 123.748C60.9635 123.859 60.948 123.991 60.9836 124.114L61.1985 124.854L62.1419 124.591L61.927 123.85C61.8913 123.727 61.8074 123.623 61.6938 123.561C61.5802 123.499 61.446 123.484 61.3209 123.519Z" fill="#2F2E41"/>
<path d="M63.2077 122.992C63.0826 123.027 62.9768 123.109 62.9135 123.22C62.8503 123.332 62.8347 123.464 62.8703 123.586L63.0852 124.327L64.0286 124.063L63.8137 123.323C63.778 123.2 63.6942 123.096 63.5805 123.034C63.4669 122.972 63.3328 122.957 63.2077 122.992Z" fill="#2F2E41"/>
<path d="M65.0944 122.464C64.9693 122.499 64.8635 122.581 64.8002 122.693C64.737 122.805 64.7214 122.936 64.757 123.059L64.9719 123.8L65.9153 123.536L65.7004 122.795C65.6648 122.673 65.5809 122.569 65.4672 122.507C65.3536 122.445 65.2195 122.429 65.0944 122.464Z" fill="#2F2E41"/>
<path d="M59.5519 119.268C59.2988 118.895 58.9656 118.581 58.5756 118.349C58.1857 118.116 57.7485 117.97 57.2949 117.921C56.8413 117.873 56.3823 117.922 55.9502 118.066C55.5182 118.21 55.1235 118.445 54.7941 118.755L48.2614 115.944L45.5527 119.424L54.835 123.267C55.4022 123.775 56.1398 124.062 56.908 124.073C57.6763 124.083 58.4217 123.817 59.0031 123.324C59.5845 122.831 59.9615 122.146 60.0627 121.398C60.1638 120.651 59.9821 119.893 59.5519 119.268Z" fill="#FFB6B6"/>
<path d="M42.7218 121.225C39.4884 120.78 35.3797 118.316 30.7017 113.997C30.4404 113.76 30.2321 113.473 30.0898 113.153C29.9476 112.833 29.8746 112.488 29.8755 112.139C29.8331 109.704 32.6611 106.81 32.9373 106.533L36.3854 100.168C36.4296 100.063 37.6468 97.2713 39.8078 96.5162C40.2623 96.3612 40.7455 96.3046 41.2243 96.3503C41.7031 96.396 42.1662 96.5429 42.5817 96.7808C46.2207 98.68 41.7122 108.852 41.1025 110.183L45.8478 113.23L48.7856 115.694L53.1395 116.756L51.1603 122.041L44.4283 121.264C43.86 121.32 43.2868 121.307 42.7218 121.225Z" fill="#2F2E41"/>
<path d="M49.098 73.0821C49.643 68.6175 46.4778 64.574 42.0282 64.0508C37.5787 63.5275 33.5298 66.7226 32.9849 71.1872C32.4399 75.6517 35.6051 79.6952 40.0546 80.2184C44.5041 80.7417 48.553 77.5466 49.098 73.0821Z" fill="#FFB6B6"/>
<path d="M19.9104 66.0935C21.4712 64.6871 22.3762 62.684 23.6882 61.0328C25.0003 59.3816 27.0999 58.0126 29.062 58.6635C30.4145 59.1122 31.34 60.4399 31.7193 61.8434C32.0985 63.2469 32.0199 64.7363 31.9383 66.1948C32.2678 63.2165 34.6163 60.5679 37.4824 59.9422C40.3482 59.3166 43.5103 60.7623 44.9467 63.355C45.7846 62.7576 46.8166 62.4828 47.8472 62.5825C48.8778 62.6822 49.8353 63.1495 50.5383 63.896C51.9185 65.4337 51.9455 68.0548 50.5976 69.6507C49.2497 71.2466 46.7091 71.6014 45.0196 70.4297L44.3106 70.9313C44.5194 72.2077 43.6443 73.5835 42.4156 73.9102C41.4193 74.1752 40.0854 73.9547 39.6103 74.8918C39.2783 75.5465 39.6536 76.3311 40.0836 76.9148C40.5134 77.4985 41.0338 78.1102 41.0043 78.8444C40.96 79.9523 39.7108 80.5852 38.6323 80.6932C36.0317 80.9536 33.3622 79.4721 32.1704 77.1069C32.1474 77.0613 32.122 77.0153 32.0941 76.969C31.4007 75.8448 30.9481 74.5937 30.7639 73.292C30.5797 71.9903 30.6679 70.6654 31.023 69.3983C31.167 68.9009 31.1303 68.5141 30.7888 68.3522C29.3128 67.6522 24.8671 68.2342 23.4418 69.0652C22.0163 69.8961 20.8121 71.076 19.4269 71.9761C18.0417 72.8762 16.3409 73.4962 14.7794 73.0231C13.5288 72.6441 12.5523 71.6052 11.9549 70.4203C11.3575 69.2354 11.0928 67.905 10.8711 66.5877C13.5025 68.5231 17.4537 68.3071 19.9104 66.0935Z" fill="#2F2E41"/>
<path d="M233.311 9.25743H110.889C110.761 9.25477 110.64 9.20325 110.551 9.11393C110.462 9.02461 110.412 8.90459 110.412 8.77959C110.412 8.6546 110.462 8.53457 110.551 8.44525C110.64 8.35593 110.761 8.30442 110.889 8.30176H233.311C233.438 8.30442 233.559 8.35593 233.648 8.44525C233.737 8.53457 233.787 8.6546 233.787 8.77959C233.787 8.90459 233.737 9.02461 233.648 9.11393C233.559 9.20325 233.438 9.25477 233.311 9.25743Z" fill="#CACACA"/>
<path d="M119.222 5.86221C120.798 5.86221 122.075 4.58052 122.075 2.99947C122.075 1.41841 120.798 0.136719 119.222 0.136719C117.647 0.136719 116.369 1.41841 116.369 2.99947C116.369 4.58052 117.647 5.86221 119.222 5.86221Z" fill="#3F3D56"/>
<path d="M129.078 5.86221C130.653 5.86221 131.931 4.58052 131.931 2.99947C131.931 1.41841 130.653 0.136719 129.078 0.136719C127.502 0.136719 126.225 1.41841 126.225 2.99947C126.225 4.58052 127.502 5.86221 129.078 5.86221Z" fill="#3F3D56"/>
<path d="M138.935 5.86221C140.511 5.86221 141.788 4.58052 141.788 2.99947C141.788 1.41841 140.511 0.136719 138.935 0.136719C137.359 0.136719 136.082 1.41841 136.082 2.99947C136.082 4.58052 137.359 5.86221 138.935 5.86221Z" fill="#3F3D56"/>
<path d="M227.376 0.846191H220.375C220.236 0.848904 220.104 0.904916 220.007 1.0022C219.91 1.09948 219.855 1.23028 219.855 1.36651C219.855 1.50275 219.91 1.63354 220.007 1.73083C220.104 1.82811 220.236 1.88412 220.375 1.88684H227.376C227.515 1.88412 227.647 1.82811 227.745 1.73083C227.842 1.63354 227.896 1.50275 227.896 1.36651C227.896 1.23028 227.842 1.09948 227.745 1.0022C227.647 0.904916 227.515 0.848904 227.376 0.846191Z" fill="#3F3D56"/>
<path d="M227.376 2.79932H220.375C220.236 2.80203 220.104 2.85804 220.007 2.95532C219.91 3.05261 219.855 3.18341 219.855 3.31964C219.855 3.45587 219.91 3.58667 220.007 3.68395C220.104 3.78124 220.236 3.83725 220.375 3.83996H227.376C227.515 3.83725 227.647 3.78124 227.745 3.68395C227.842 3.58667 227.896 3.45587 227.896 3.31964C227.896 3.18341 227.842 3.05261 227.745 2.95532C227.647 2.85804 227.515 2.80203 227.376 2.79932Z" fill="#3F3D56"/>
<path d="M227.377 4.75H220.375C220.236 4.7527 220.104 4.8087 220.007 4.90598C219.91 5.00327 219.855 5.13408 219.855 5.27032C219.855 5.40656 219.91 5.53737 220.007 5.63466C220.104 5.73194 220.236 5.78795 220.375 5.79064H227.377C227.515 5.78795 227.647 5.73194 227.745 5.63466C227.842 5.53737 227.896 5.40656 227.896 5.27032C227.896 5.13408 227.842 5.00327 227.745 4.90598C227.647 4.8087 227.515 4.7527 227.377 4.75Z" fill="#3F3D56"/>
<path d="M18.6836 119.082L18.6883 119.076L18.6836 119.088V119.082Z" fill="#2F2E41"/>
<path d="M186.857 27.8782C188.805 27.8782 190.385 26.3282 190.385 24.4162C190.385 22.5041 188.805 20.9541 186.857 20.9541C184.909 20.9541 183.33 22.5041 183.33 24.4162C183.33 26.3282 184.909 27.8782 186.857 27.8782Z" fill="#E6E7E8"/>
<path d="M216.589 32.0824H184.382C184.244 32.0826 184.107 32.0561 183.98 32.0044C183.852 31.9527 183.736 31.8768 183.638 31.781C183.541 31.6853 183.463 31.5715 183.41 31.4463C183.357 31.3212 183.33 31.187 183.33 31.0514C183.33 30.9159 183.357 30.7817 183.41 30.6565C183.463 30.5314 183.541 30.4176 183.638 30.3219C183.736 30.2261 183.852 30.1502 183.98 30.0985C184.107 30.0468 184.244 30.0203 184.382 30.0205H216.589C216.727 30.0203 216.863 30.0468 216.991 30.0985C217.119 30.1502 217.235 30.2261 217.332 30.3219C217.43 30.4176 217.508 30.5314 217.56 30.6565C217.613 30.7817 217.641 30.9159 217.641 31.0514C217.641 31.187 217.613 31.3212 217.56 31.4463C217.508 31.5715 217.43 31.6853 217.332 31.781C217.235 31.8768 217.119 31.9527 216.991 32.0044C216.863 32.0561 216.727 32.0826 216.589 32.0824Z" fill="#E6E7E8"/>
<path d="M192.38 36.1562H184.38C184.102 36.1562 183.835 36.0476 183.638 35.8542C183.441 35.6609 183.33 35.3987 183.33 35.1252C183.33 34.8518 183.441 34.5896 183.638 34.3962C183.835 34.2029 184.102 34.0942 184.38 34.0942H192.38C192.658 34.0942 192.925 34.2029 193.122 34.3962C193.319 34.5896 193.43 34.8518 193.43 35.1252C193.43 35.3987 193.319 35.6609 193.122 35.8542C192.925 36.0476 192.658 36.1562 192.38 36.1562Z" fill="#E6E7E8"/>
<path d="M186.857 81.9158C188.805 81.9158 190.385 80.3658 190.385 78.4538C190.385 76.5417 188.805 74.9917 186.857 74.9917C184.909 74.9917 183.33 76.5417 183.33 78.4538C183.33 80.3658 184.909 81.9158 186.857 81.9158Z" fill="#E6E7E8"/>
<path d="M216.587 86.12H184.38C184.102 86.12 183.835 86.0113 183.638 85.818C183.441 85.6247 183.33 85.3625 183.33 85.089C183.33 84.8156 183.441 84.5534 183.638 84.3601C183.835 84.1667 184.102 84.0581 184.38 84.0581H216.587C216.865 84.0581 217.133 84.1667 217.33 84.3601C217.527 84.5534 217.637 84.8156 217.637 85.089C217.637 85.3625 217.527 85.6247 217.33 85.818C217.133 86.0113 216.865 86.12 216.587 86.12Z" fill="#E6E7E8"/>
<path d="M192.38 90.1938H184.38C184.102 90.1938 183.835 90.0852 183.638 89.8918C183.441 89.6985 183.33 89.4363 183.33 89.1628C183.33 88.8894 183.441 88.6271 183.638 88.4338C183.835 88.2405 184.102 88.1318 184.38 88.1318H192.38C192.658 88.1318 192.925 88.2405 193.122 88.4338C193.319 88.6271 193.43 88.8894 193.43 89.1628C193.43 89.4363 193.319 89.6985 193.122 89.8918C192.925 90.0852 192.658 90.1938 192.38 90.1938Z" fill="#E6E7E8"/>
<path d="M130.088 73.7157C132.036 73.7157 133.615 72.1656 133.615 70.2536C133.615 68.3415 132.036 66.7915 130.088 66.7915C128.14 66.7915 126.561 68.3415 126.561 70.2536C126.561 72.1656 128.14 73.7157 130.088 73.7157Z" fill="#E6E7E8"/>
<path d="M159.819 77.9198H127.613C127.334 77.9198 127.067 77.8112 126.87 77.6178C126.673 77.4245 126.562 77.1623 126.562 76.8888C126.562 76.6154 126.673 76.3532 126.87 76.1599C127.067 75.9665 127.334 75.8579 127.613 75.8579H159.819C160.098 75.8579 160.365 75.9665 160.562 76.1599C160.759 76.3532 160.87 76.6154 160.87 76.8888C160.87 77.1623 160.759 77.4245 160.562 77.6178C160.365 77.8112 160.098 77.9198 159.819 77.9198Z" fill="#E6E7E8"/>
<path d="M135.61 81.9931H127.611C127.332 81.9931 127.065 81.8845 126.868 81.6912C126.671 81.4978 126.561 81.2356 126.561 80.9621C126.561 80.6887 126.671 80.4265 126.868 80.2331C127.065 80.0398 127.332 79.9312 127.611 79.9312H135.61C135.889 79.9312 136.156 80.0398 136.353 80.2331C136.55 80.4265 136.661 80.6887 136.661 80.9621C136.661 81.2356 136.55 81.4978 136.353 81.6912C136.156 81.8845 135.889 81.9931 135.61 81.9931Z" fill="#E6E7E8"/>
<path d="M186.857 52.8602C188.805 52.8602 190.385 51.3101 190.385 49.3981C190.385 47.4861 188.805 45.936 186.857 45.936C184.909 45.936 183.33 47.4861 183.33 49.3981C183.33 51.3101 184.909 52.8602 186.857 52.8602Z" fill="#E6E7E8"/>
<path d="M216.587 57.0643H184.38C184.102 57.0643 183.835 56.9557 183.638 56.7624C183.441 56.569 183.33 56.3068 183.33 56.0334C183.33 55.76 183.441 55.4977 183.638 55.3044C183.835 55.1111 184.102 55.0024 184.38 55.0024H216.587C216.865 55.0024 217.133 55.1111 217.33 55.3044C217.527 55.4977 217.637 55.76 217.637 56.0334C217.637 56.3068 217.527 56.569 217.33 56.7624C217.133 56.9557 216.865 57.0643 216.587 57.0643Z" fill="#E6E7E8"/>
<path d="M203.733 61.1381H184.38C184.102 61.1381 183.835 61.0295 183.638 60.8362C183.441 60.6428 183.33 60.3806 183.33 60.1072C183.33 59.8337 183.441 59.5715 183.638 59.3781C183.835 59.1848 184.102 59.0762 184.38 59.0762H203.733C204.012 59.0762 204.279 59.1848 204.476 59.3781C204.673 59.5715 204.784 59.8337 204.784 60.1072C204.784 60.3806 204.673 60.6428 204.476 60.8362C204.279 61.0295 204.012 61.1381 203.733 61.1381Z" fill="#E6E7E8"/>
<path d="M198.341 65.2119H184.38C184.102 65.2119 183.835 65.1032 183.638 64.9099C183.441 64.7166 183.33 64.4543 183.33 64.1809C183.33 63.9074 183.441 63.6452 183.638 63.4519C183.835 63.2585 184.102 63.1499 184.38 63.1499H198.341C198.62 63.1499 198.887 63.2585 199.084 63.4519C199.281 63.6452 199.392 63.9074 199.392 64.1809C199.392 64.4543 199.281 64.7166 199.084 64.9099C198.887 65.1032 198.62 65.2119 198.341 65.2119Z" fill="#E6E7E8"/>
<path d="M154.698 26.9002V63.2491C154.697 63.5028 154.595 63.746 154.412 63.9255C154.229 64.1049 153.982 64.2061 153.723 64.2067H134.21C132.051 62.2418 130.28 59.9029 128.986 57.3075C128.901 57.1402 128.819 56.9717 128.742 56.8006C127.563 54.2886 126.849 51.5905 126.634 48.8326C126.619 48.6628 126.607 48.4943 126.599 48.3231C126.573 47.8855 126.561 47.4413 126.561 46.9958C126.557 44.0305 127.127 41.0915 128.242 38.3354C128.308 38.1643 128.379 37.9945 128.452 37.8259C129.919 34.4394 132.176 31.4379 135.039 29.0624C135.21 28.92 135.382 28.7815 135.556 28.6469L135.596 28.6155C137.837 26.8742 140.613 25.9309 143.471 25.94H153.723C153.982 25.9408 154.23 26.0423 154.413 26.2224C154.595 26.4024 154.698 26.6462 154.698 26.9002Z" fill="#7936FC"/>
<path opacity="0.2" d="M154.75 38.3359V37.8264H146.048V25.9404H145.53V37.8264H135.556V28.6474C135.382 28.7819 135.21 28.9204 135.04 29.0628V37.8264H128.452C128.379 37.9949 128.309 38.1647 128.242 38.3359H135.04V48.3236H126.6C126.608 48.4947 126.62 48.6632 126.634 48.8331H135.04V56.801H128.743C128.82 56.9721 128.901 57.1407 128.986 57.3079H135.04V64.006H135.556V57.3079H145.53V64.006H146.048V57.3079H154.75V56.801H146.048C146.047 55.7546 146.257 54.7184 146.665 53.7516C147.073 52.7847 147.671 51.9063 148.425 51.1664C149.179 50.4264 150.074 49.8395 151.059 49.4392C152.044 49.0388 153.099 48.8329 154.166 48.8331H154.75V48.3236H146.048V38.3359H154.75ZM145.53 56.801H135.556V48.8331H145.53V56.801ZM145.53 48.3236H135.556V48.1237C135.556 46.8382 135.814 45.5654 136.316 44.3778C136.817 43.1903 137.552 42.1113 138.478 41.2024C139.404 40.2935 140.503 39.5726 141.713 39.0807C142.923 38.5889 144.22 38.3358 145.53 38.3359V48.3236Z" fill="black"/>
<path d="M153.768 56.9292C153.559 56.9387 153.353 56.8849 153.176 56.7752C153 56.6656 152.862 56.5053 152.781 56.3162C152.701 56.1271 152.682 55.9183 152.726 55.718C152.77 55.5177 152.876 55.3356 153.03 55.1964C153.055 55.0962 153.074 55.0243 153.1 54.9241C153.09 54.9023 153.081 54.8805 153.072 54.8587C152.134 52.664 146.15 58.7821 145.892 60.8447C145.778 61.7564 145.826 62.6807 146.034 63.5763C144.095 59.4264 143.089 54.916 143.082 50.3508C143.082 49.2052 143.147 48.0605 143.277 46.9221C143.384 45.9888 143.533 45.0621 143.723 44.1421C144.762 39.1502 146.992 34.4713 150.231 30.4898C152.084 30.5913 153.707 30.3143 153.864 26.7908C153.892 26.164 154.365 25.6213 154.47 25.0038C154.293 25.0266 154.113 25.0408 153.936 25.0522C153.881 25.055 153.823 25.0579 153.768 25.0607L153.747 25.0617C153.553 25.0702 153.36 25.0235 153.192 24.927C153.025 24.8306 152.889 24.6885 152.801 24.518C152.713 24.3475 152.678 24.1558 152.699 23.9659C152.72 23.7761 152.796 23.5962 152.919 23.4479C152.995 23.3557 153.071 23.2635 153.148 23.1714C153.264 23.0291 153.383 22.8897 153.499 22.7474C153.512 22.7339 153.525 22.7196 153.536 22.7047C153.67 22.5425 153.803 22.3832 153.936 22.221C153.693 21.8502 153.366 21.5395 152.98 21.3133C151.643 20.5451 149.799 21.0772 148.834 22.2637C147.866 23.4502 147.683 25.1148 148.019 26.5973C148.35 27.8587 148.897 29.0557 149.637 30.1369C149.565 30.228 149.489 30.3162 149.417 30.4073C148.092 32.0794 146.937 33.8749 145.969 35.7681C146.243 33.6684 142.894 26.0855 141.599 24.4793C140.043 22.5501 136.853 23.392 136.579 25.8377C136.576 25.8613 136.574 25.885 136.571 25.9087C136.764 26.0152 136.952 26.1283 137.136 26.2479C137.368 26.3996 137.547 26.6165 137.651 26.8701C137.754 27.1236 137.778 27.402 137.718 27.6687C137.657 27.9355 137.516 28.1782 137.313 28.365C137.11 28.5518 136.854 28.674 136.579 28.7157L136.551 28.7199C133.976 32.3286 142.231 41.7211 144.297 39.6122C143.325 42.3174 142.715 45.1352 142.482 47.9948C142.351 49.6819 142.359 51.3766 142.506 53.0625L142.497 53.0027C142.038 49.3309 134.162 43.8717 131.862 44.3264C130.537 44.5884 129.232 44.5288 129.433 45.8406C129.436 45.8615 129.439 45.8825 129.443 45.9034C129.8 46.0461 130.147 46.2105 130.483 46.3957C130.676 46.5022 130.864 46.6153 131.048 46.7348C131.28 46.8866 131.459 47.1035 131.563 47.3571C131.666 47.6106 131.69 47.889 131.63 48.1557C131.569 48.4225 131.428 48.6652 131.225 48.852C131.022 49.0388 130.766 49.161 130.491 49.2027L130.463 49.2069C130.443 49.2098 130.425 49.2126 130.405 49.2155C129.233 53.174 137.925 59.5625 143.21 57.5298H143.213C143.737 59.7634 144.495 61.9376 145.477 64.0173H153.565C153.594 63.9291 153.62 63.8381 153.646 63.7498C152.898 63.796 152.146 63.7521 151.408 63.619C152.009 62.8962 152.609 62.1678 153.209 61.4451C153.222 61.4316 153.235 61.4173 153.246 61.4024C153.551 61.0325 153.858 60.6654 154.162 60.2955L154.163 60.2951C154.179 59.1612 154.046 58.03 153.768 56.9294L153.768 56.9292ZM144.506 39.0459L144.51 39.0403L144.506 39.0516V39.0459ZM142.714 54.8978L142.645 54.7441C142.648 54.6332 142.648 54.5222 142.645 54.4084C142.645 54.377 142.639 54.3458 142.639 54.3145C142.665 54.5108 142.688 54.7071 142.717 54.9035L142.714 54.8978Z" fill="#2F2E41"/>
</g>
<defs>
<clipPath id="clip0_666_465">
<rect width="233.01" height="181.2" fill="white" transform="translate(0.777344 0.136719)"/>
</clipPath>
</defs>
</svg>
