<svg width="224" height="162" viewBox="0 0 224 162" fill="none" xmlns="http://www.w3.org/2000/svg">
<g clip-path="url(#clip0_666_416)">
<path d="M119.486 71.4528L118.416 73.1553L132.696 82.6403L133.766 80.9378L119.486 71.4528Z" fill="#2F2E41"/>
<path d="M134.473 82.6138C136.245 79.7931 137.126 77.1371 136.44 76.6816C135.754 76.2261 133.762 78.1435 131.99 80.9643C130.218 83.7851 129.337 86.441 130.023 86.8966C130.709 87.3521 132.701 85.4346 134.473 82.6138Z" fill="#2F2E41"/>
<path d="M120.192 73.129C121.964 70.3082 122.844 67.6522 122.159 67.1967C121.473 66.7412 119.48 68.6586 117.708 71.4794C115.936 74.3002 115.056 76.9562 115.742 77.4117C116.428 77.8672 118.42 75.9498 120.192 73.129Z" fill="#2F2E41"/>
<path d="M166.737 162C198.16 162 223.634 160.002 223.634 157.538C223.634 155.073 198.16 153.076 166.737 153.076C135.313 153.076 109.84 155.073 109.84 157.538C109.84 160.002 135.313 162 166.737 162Z" fill="#E6E6E6"/>
<path d="M57.7739 140.613C89.1972 140.613 114.671 138.615 114.671 136.151C114.671 133.686 89.1972 131.688 57.7739 131.688C26.3506 131.688 0.876953 133.686 0.876953 136.151C0.876953 138.615 26.3506 140.613 57.7739 140.613Z" fill="#E6E6E6"/>
<path d="M213.54 136.141C213.354 143.31 212.186 150.416 210.071 157.25C210.023 157.409 209.972 157.565 209.922 157.724H196.975C196.989 157.582 197.003 157.423 197.017 157.25C197.88 147.046 202.857 84.9389 196.906 74.3179C197.427 75.1795 214.544 103.717 213.54 136.141Z" fill="#E6E6E6"/>
<path d="M212.568 157.25C212.46 157.409 212.347 157.567 212.232 157.724H202.52C202.593 157.589 202.678 157.43 202.777 157.25C204.382 154.272 209.131 145.37 213.539 136.141C218.277 126.223 222.623 115.928 222.257 112.203C222.37 113.043 225.648 138.659 212.568 157.25Z" fill="#E6E6E6"/>
<path d="M121.805 146.769C121.899 150.407 122.492 154.014 123.566 157.483C123.59 157.564 123.616 157.643 123.642 157.724H130.213C130.206 157.652 130.199 157.571 130.192 157.483C129.754 152.304 127.228 120.779 130.248 115.388C129.984 115.826 121.295 130.311 121.805 146.769Z" fill="#E6E6E6"/>
<path d="M122.298 157.484C122.353 157.564 122.411 157.645 122.469 157.724H127.399C127.361 157.655 127.318 157.575 127.268 157.484C126.453 155.972 124.043 151.453 121.805 146.769C119.401 141.735 117.195 136.509 117.38 134.618C117.323 135.045 115.659 148.047 122.298 157.484Z" fill="#E6E6E6"/>
<path d="M130.192 67.9746C130.192 67.9746 119.213 79.0377 123.824 80.3923C128.435 81.747 133.705 70.2324 133.705 70.2324L130.192 67.9746Z" fill="#A0616A"/>
<path d="M141.171 105.228L139.854 111.549L149.734 112.001L148.197 105.228H141.171Z" fill="#A0616A"/>
<path d="M172.351 144.287L171.033 150.609L180.914 151.06L179.377 144.287H172.351Z" fill="#A0616A"/>
<path d="M155.003 63.0078L155.882 66.6202C155.882 66.6202 131.51 61.6532 132.827 74.2966C134.144 86.9401 139.853 99.132 139.853 99.132C139.853 99.132 139.414 103.196 140.292 103.873C141.171 104.551 140.292 106.808 140.292 106.808C140.292 106.808 148.416 107.937 148.636 105.905C148.753 104.547 148.68 103.178 148.416 101.841C148.416 101.841 148.856 101.841 148.416 99.5835C147.977 97.3258 146.203 79.1175 144.886 76.634C144.886 76.634 156.54 85.8112 162.688 84.6823C162.688 84.6823 161.81 93.7133 165.323 105.679C168.836 117.646 168.836 119 168.836 119C168.836 119 173.008 141.804 171.91 144.513L171.691 145.642H179.815C179.815 145.642 179.156 133.676 179.815 132.095C180.474 130.515 180.474 116.968 176.741 110.195C174.098 105.398 174.59 91.4907 176.036 85.9935C177.25 81.3771 177.557 77.8241 176.845 73.0982C176.084 68.0443 173.811 65.4026 171.032 63.0078H155.003Z" fill="#2F2E41"/>
<path d="M161.481 29.0283C165.846 29.0283 169.385 25.3893 169.385 20.9004C169.385 16.4115 165.846 12.7725 161.481 12.7725C157.115 12.7725 153.576 16.4115 153.576 20.9004C153.576 25.3893 157.115 29.0283 161.481 29.0283Z" fill="#A0616A"/>
<path d="M159.395 26.6576C159.395 26.6576 161.81 33.8825 161.59 35.2371C161.371 36.5918 168.616 32.5278 168.616 32.5278C168.616 32.5278 165.762 25.303 166.64 23.271L159.395 26.6576Z" fill="#A0616A"/>
<path d="M168.178 30.0444L160.493 33.2053L160.932 35.9146C160.932 35.9146 160.273 36.8177 160.493 37.2693C160.712 37.7208 157.638 39.527 158.077 40.2044C158.516 40.8817 155.442 43.591 155.662 44.2683C155.882 44.9457 148.636 49.0096 152.588 56.9118C152.588 56.9118 154.637 59.6509 154.38 62.8902C154.371 63.004 154.359 63.1185 154.345 63.2335C153.905 66.6201 171.032 62.782 171.032 62.782V58.9438C171.032 58.9438 172.569 58.2664 172.349 55.3313C172.13 52.3963 170.812 53.7509 172.349 52.1705C173.886 50.5901 173.886 50.8158 173.667 49.4612C173.579 48.9202 173.561 46.9751 173.572 44.8336C173.592 40.3088 172.159 35.9037 169.495 32.3022L168.178 30.0444Z" fill="#7936FC"/>
<path d="M164.006 35.9147L149.734 51.2675L128.875 68.2007L133.486 72.0389L171.911 45.6231C171.911 45.6231 175.204 31.1734 164.006 35.9147Z" fill="#7936FC"/>
<path d="M141.83 108.615C141.83 108.615 140.294 105.905 139.196 106.808L131.511 113.13C131.511 113.13 117.897 117.194 131.072 120.355C131.072 120.355 138.317 121.484 139.854 120.355C141.391 119.226 143.807 119.452 144.465 119.903C145.124 120.355 153.468 119.678 153.468 117.871C153.468 116.065 148.866 108.171 148.866 108.171C148.866 108.171 146.222 111.324 141.83 108.615Z" fill="#2F2E41"/>
<path d="M173.008 147.674C173.008 147.674 171.471 144.964 170.373 145.867L162.688 152.189C162.688 152.189 149.075 156.253 162.249 159.414C162.249 159.414 169.495 160.543 171.032 159.414C172.569 158.285 174.984 158.511 175.643 158.962C176.302 159.414 184.645 158.737 184.645 156.93C184.645 155.124 180.044 147.23 180.044 147.23C180.044 147.23 177.4 150.383 173.008 147.674Z" fill="#2F2E41"/>
<path d="M152.008 17.6771C152.008 17.6771 153.344 5.59664 164.775 9.02669C164.775 9.02669 172.862 7.33538 175.718 17.7206L178.617 28.6087L177.29 27.8996L176.703 29.2878L174.585 29.884L173.64 28.0434L173.242 30.3091L158.617 33.3496C158.617 33.3496 163.563 27.5386 163.528 19.0278L162.071 20.6729L152.008 17.6771Z" fill="#2F2E41"/>
<path d="M73.4652 7.854H55.1816V31.2984H73.4652V7.854Z" fill="#2F2E41"/>
<path d="M40.083 117.214L37.5898 126.649L41.7454 129.794L42.8533 128.936L44.7925 119.215L40.083 117.214Z" fill="#FFB8B8"/>
<path d="M71.3877 116.356L70.5566 127.792H75.8201V117.214L71.3877 116.356Z" fill="#FFB8B8"/>
<path d="M54.7656 44.021V50.8828L65.0157 52.5982L73.8803 48.8815L72.2182 44.5927L54.7656 44.021Z" fill="#FFB8B8"/>
<path d="M63.0761 49.7394L54.2114 48.0239L51.9952 66.608L46.4547 89.7665C46.4547 89.7665 38.144 109.494 39.2521 114.069L39.8062 115.498L39.2521 118.071L44.7926 120.359L47.0088 116.642C47.0088 116.642 48.6709 119.215 51.4411 113.783C54.2114 108.351 65.8464 74.6134 65.8464 74.6134L67.7855 80.3315C67.2839 82.0956 67.1891 83.9555 67.5085 85.7638C68.0625 88.6229 68.6166 97.486 68.6166 97.486C68.6166 97.486 65.5693 112.925 69.7247 114.069L70.5557 117.5L76.3732 118.071L77.4813 114.64C77.4813 114.64 83.0218 112.639 81.6367 102.632C80.2515 92.6256 79.6975 59.7462 79.6975 59.7462L74.24 45.8584L63.0761 49.7394Z" fill="#2F2E41"/>
<path d="M39.2523 126.077C39.2523 126.077 37.8672 124.933 37.3131 125.219C36.7591 125.505 30.9416 133.225 30.9416 133.225C30.9416 133.225 24.847 138.085 29.2794 138.657C33.7118 139.229 45.9008 132.939 45.9008 131.509C45.9008 130.08 43.3396 126.499 43.3396 126.499C43.3396 126.499 41.4685 128.078 39.2523 126.077Z" fill="#2F2E41"/>
<path d="M70.0011 125.219C70.0011 125.219 74.9875 124.899 75.8186 125.774C76.6496 126.649 76.3726 130.937 76.3726 130.937C76.3726 130.937 76.9267 138.657 72.4943 138.657C68.0619 138.657 69.17 133.51 69.17 133.51L70.0011 125.219Z" fill="#2F2E41"/>
<path d="M65.0154 18.8613C68.8403 18.8613 71.941 15.6612 71.941 11.7136C71.941 7.76605 68.8403 4.56592 65.0154 4.56592C61.1905 4.56592 58.0898 7.76605 58.0898 11.7136C58.0898 15.6612 61.1905 18.8613 65.0154 18.8613Z" fill="#FFB8B8"/>
<path d="M60.4445 16.145C60.4445 16.145 64.3229 21.0055 56.5662 24.7223C48.8096 28.4391 62.1067 43.8781 62.1067 43.8781C62.1067 43.8781 77.62 37.874 76.2349 26.1518C76.2349 26.1518 66.8161 24.4363 69.0323 16.4309L60.4445 16.145Z" fill="#FFB8B8"/>
<path d="M56.2887 24.4366C56.2887 24.4366 49.9172 23.5789 49.6401 29.0111C49.3631 34.4434 49.6401 47.5951 49.6401 47.5951C49.6401 47.5951 46.8699 59.0315 48.255 69.0382C48.255 69.0382 46.5929 80.7605 51.0252 80.1886C55.4576 79.6168 52.1333 68.1805 52.1333 68.1805L54.0725 49.5965L53.2414 35.8729L56.8427 27.5816L56.2887 24.4366Z" fill="#FFB8B8"/>
<path d="M74.6256 25.6995C74.6256 25.6995 80.6665 25.5801 80.9435 30.1546C81.2205 34.7291 79.0044 48.7386 79.0044 48.7386L75.6801 50.454L72.6328 40.7332L74.6256 25.6995Z" fill="#FFB8B8"/>
<path d="M76.3728 49.1677L75.8187 50.5973L77.4808 54.8859C77.4808 54.8859 70.8323 60.3181 71.3863 61.4618C71.9403 62.6054 74.9876 60.0322 74.9876 60.0322L79.42 62.3195C79.42 62.3195 83.0213 58.3168 81.3591 54.6C80.4384 52.6018 79.6681 50.534 79.055 48.4147C79.055 48.4147 76.6498 48.31 76.3728 49.1677Z" fill="#FFB8B8"/>
<path d="M55.0422 23.436L54.2112 32.871C54.2112 32.871 50.3329 36.8737 54.7652 42.3059L54.2112 46.5946C54.2112 46.5946 64.4611 46.0228 66.4002 46.5946C68.3394 47.1664 74.3281 46.1342 74.3281 46.1342L74.4339 42.8778C74.4339 42.8778 77.2041 38.8751 76.3731 32.871C75.542 26.8669 76.3731 24.8656 76.3731 24.8656L74.4339 24.5797C74.4339 24.5797 73.1873 33.2999 64.5996 34.1576C64.5996 34.1576 53.9342 35.1583 56.9814 23.436L55.0422 23.436Z" fill="#E6E6E6"/>
<path d="M65.7071 0.134407C65.7071 0.134407 58.5045 -0.326426 56.8424 4.29614C55.1802 8.91872 52.2715 11.3455 52.2715 11.3455C52.2715 11.3455 47.6895 14.6327 49.9805 20.5008C49.9805 20.5008 42.8527 25.4443 47.5621 29.8357C47.5621 29.8357 47.2851 34.2271 50.0553 37.2318C50.0553 37.2318 52.2715 38.3875 51.4404 39.0808C50.6094 39.7742 56.9809 39.312 56.4268 33.0715C55.8728 26.8311 59.6126 22.4352 59.6126 22.4352C59.6126 22.4352 56.0113 14.3443 57.6734 11.5707C58.6826 9.8868 59.116 8.63105 59.9537 7.90428C60.4204 7.50907 60.8531 7.07326 61.247 6.60169C61.6185 6.11593 62.1243 5.75716 62.6979 5.57255C63.2714 5.38793 63.8859 5.38611 64.4605 5.56733C66.9537 6.26072 67.5078 8.34086 67.5078 8.34086C67.5078 8.34086 69.3084 13.3101 72.3557 15.6214C75.4029 17.9327 70.001 21.9774 70.001 21.9774C70.001 21.9774 70.94 26.7395 73.3792 29.5588C75.8185 32.3781 72.6762 34.8357 72.4942 35.1517C72.0786 35.8729 70.4192 40.4272 77.2742 40.4474C77.2742 40.4474 78.8657 37.0007 81.0819 34.9205C83.2981 32.8404 81.636 26.8311 81.636 26.8311C81.636 26.8311 84.9602 24.7509 81.3589 19.6661C81.3589 19.6661 82.467 15.0436 79.4198 12.0389C79.4198 12.0389 75.1259 -1.48348 65.7071 0.134407Z" fill="#2F2E41"/>
<path d="M57.5363 12.7145C57.9188 12.7145 58.2289 12.2025 58.2289 11.5709C58.2289 10.9393 57.9188 10.4272 57.5363 10.4272C57.1538 10.4272 56.8438 10.9393 56.8438 11.5709C56.8438 12.2025 57.1538 12.7145 57.5363 12.7145Z" fill="#FFB8B8"/>
<path d="M24.4575 129.502H7.45703V131.529H24.4575V129.502Z" fill="#2F2E41"/>
<path d="M24.4568 136.596C25.2733 136.596 25.9351 133.874 25.9351 130.516C25.9351 127.158 25.2733 124.436 24.4568 124.436C23.6404 124.436 22.9785 127.158 22.9785 130.516C22.9785 133.874 23.6404 136.596 24.4568 136.596Z" fill="#2F2E41"/>
<path d="M7.45682 136.596C8.27327 136.596 8.93513 133.874 8.93513 130.516C8.93513 127.158 8.27327 124.436 7.45682 124.436C6.64038 124.436 5.97852 127.158 5.97852 130.516C5.97852 133.874 6.64038 136.596 7.45682 136.596Z" fill="#2F2E41"/>
<path d="M20.4204 129.502H3.41992V131.529H20.4204V129.502Z" fill="#2F2E41"/>
<path d="M20.4217 136.596C21.2381 136.596 21.9 133.874 21.9 130.516C21.9 127.158 21.2381 124.436 20.4217 124.436C19.6052 124.436 18.9434 127.158 18.9434 130.516C18.9434 133.874 19.6052 136.596 20.4217 136.596Z" fill="#2F2E41"/>
<path d="M3.42167 136.596C4.23812 136.596 4.89998 133.874 4.89998 130.516C4.89998 127.158 4.23812 124.436 3.42167 124.436C2.60522 124.436 1.94336 127.158 1.94336 130.516C1.94336 133.874 2.60522 136.596 3.42167 136.596Z" fill="#2F2E41"/>
<path d="M213.823 149.932H196.822V151.959H213.823V149.932Z" fill="#2F2E41"/>
<path d="M213.824 157.025C214.64 157.025 215.302 154.303 215.302 150.945C215.302 147.587 214.64 144.865 213.824 144.865C213.008 144.865 212.346 147.587 212.346 150.945C212.346 154.303 213.008 157.025 213.824 157.025Z" fill="#2F2E41"/>
<path d="M196.822 157.025C197.639 157.025 198.3 154.303 198.3 150.945C198.3 147.587 197.639 144.865 196.822 144.865C196.006 144.865 195.344 147.587 195.344 150.945C195.344 154.303 196.006 157.025 196.822 157.025Z" fill="#2F2E41"/>
</g>
<defs>
<clipPath id="clip0_666_416">
<rect width="222.757" height="162" fill="white" transform="translate(0.876953)"/>
</clipPath>
</defs>
</svg>
