<svg width="197" height="229" viewBox="0 0 197 229" fill="none" xmlns="http://www.w3.org/2000/svg">
<g clip-path="url(#clip0_666_539)">
<path d="M196.764 114.5C196.776 127.02 195.022 139.458 191.571 151.316C191.373 151.994 191.17 152.669 190.963 153.342C187.309 165.109 182.025 176.101 175.32 185.88C173.319 188.803 171.198 191.606 168.958 194.288C166.718 196.974 164.366 199.529 161.903 201.954C148.164 215.521 131.475 224.406 113.675 227.631H113.672C111.403 228.041 109.111 228.361 106.798 228.59C104.043 228.861 101.255 228.998 98.4336 229C85.3153 229.02 72.3271 225.973 60.2384 220.041C48.1498 214.109 37.2068 205.411 28.0578 194.464C27.4149 193.698 26.7816 192.921 26.1581 192.133C24.6046 190.172 23.1103 188.149 21.6751 186.066C20.8692 184.894 20.0828 183.704 19.3157 182.495C14.5909 175.063 10.6599 166.988 7.60921 158.45C6.30823 154.814 5.17209 151.101 4.20548 147.326C4.13566 147.058 4.06875 146.79 4.00184 146.523C3.85638 145.947 3.71577 145.368 3.58001 144.785C1.2658 134.916 0.0965933 124.73 0.103546 114.5C0.103546 51.2642 44.1281 0 98.4336 0C152.739 0 196.764 51.2642 196.764 114.5Z" fill="#F2F2F2"/>
<path d="M41.8059 68.44C41.6536 69.5163 41.7059 70.6184 41.959 71.6686C42.2122 72.7188 42.6599 73.6916 43.2709 74.5185C43.8818 75.3454 44.641 76.0063 45.495 76.4546C46.3489 76.9029 47.277 77.1277 48.2136 77.1132L63.9099 130.296L73.9252 122.281L54.5913 69.0154C54.466 67.1847 53.7684 65.4711 52.6306 64.1993C51.4929 62.9275 49.994 62.1859 48.4181 62.115C46.8421 62.044 45.2985 62.6488 44.0799 63.8145C42.8612 64.9802 42.0521 66.626 41.8059 68.44Z" fill="#A0616A"/>
<path d="M123.73 86.4337C116.76 95.6683 99.5726 111.942 85.4136 123.148C82.3532 125.57 79.4324 127.752 76.7879 129.578C75.0017 130.811 73.3406 131.878 71.8452 132.749C70.8416 133.331 69.7456 133.665 68.6258 133.731C67.506 133.797 66.3865 133.594 65.3375 133.132C64.2886 132.671 63.3326 131.963 62.5297 131.052C61.7267 130.14 61.094 129.046 60.6711 127.837L50.8672 100.218L54.2593 97.5992L62.6232 91.1391L64.5229 89.6756L72.366 111.427L80.6368 103.697L85.7715 98.8966L109.179 77.023L111.198 76.3252L115.908 81.6776L119.239 85.4649L122.372 86.0983C122.84 86.1932 123.294 86.305 123.73 86.4337Z" fill="#7936FC"/>
<path d="M186.267 162.32C186.753 163.038 187.257 163.753 187.76 164.471C186.026 168.616 184.077 172.634 181.924 176.503C181.764 176.371 181.604 176.239 181.444 176.107C181.419 176.091 181.394 176.073 181.371 176.053C180.775 175.558 180.176 175.07 179.579 174.576V174.572C179.087 172.623 178.812 170.608 178.762 168.576C179.069 168.494 179.348 168.304 179.559 168.031C179.771 167.759 179.905 167.417 179.944 167.052C179.983 166.688 179.925 166.318 179.778 165.993C179.63 165.668 179.4 165.404 179.12 165.236C179.041 165.077 178.986 164.962 178.907 164.799C178.91 164.759 178.916 164.715 178.919 164.674C179.376 160.443 184.007 158.966 186.267 162.32Z" fill="white"/>
<path d="M191.489 147.821C191.838 148.939 192.156 150.069 192.443 151.212C192.245 151.889 192.043 152.565 191.835 153.238C191.757 152.882 191.675 152.526 191.591 152.17C191.118 150.193 190.549 148.247 189.889 146.344C189.348 144.782 188.749 143.253 188.091 141.757C184.516 133.629 179.335 126.605 172.975 121.262C170.346 120.554 167.968 118.925 166.159 116.594C165.506 115.757 164.961 114.814 164.538 113.796C164.806 113.752 165.074 113.691 165.335 113.627C165.417 113.606 165.501 113.583 165.583 113.562L165.615 113.555C165.901 113.478 166.162 113.306 166.366 113.06C166.571 112.814 166.709 112.505 166.766 112.169C166.823 111.834 166.796 111.486 166.687 111.168C166.578 110.85 166.393 110.576 166.153 110.378C166.005 110.253 165.853 110.131 165.705 110.009C165.478 109.816 165.248 109.633 165.018 109.443C164.994 109.425 164.971 109.406 164.949 109.385C164.687 109.169 164.425 108.959 164.166 108.738C164.367 107.984 164.714 107.293 165.181 106.719C166.808 104.765 169.711 104.809 171.608 106.401C173.507 107.993 174.462 110.781 174.584 113.498C174.691 115.825 174.261 118.129 173.694 120.375C173.836 120.497 173.984 120.612 174.127 120.737C176.746 122.997 179.168 125.552 181.359 128.363C180.094 124.867 179.634 120.307 179.963 117.167C180.338 113.589 181.831 110.192 183.052 106.807C184.516 102.742 189.508 102.688 190.916 106.78C190.93 106.821 190.945 106.858 190.957 106.899C190.721 107.173 190.494 107.458 190.276 107.753C190.002 108.124 189.831 108.583 189.785 109.07C189.738 109.556 189.819 110.048 190.017 110.48C190.215 110.912 190.52 111.264 190.893 111.491C191.265 111.717 191.688 111.808 192.106 111.75L192.149 111.743C192.331 112.951 192.434 114.173 192.458 115.398C192.494 118.828 191.921 122.228 190.776 125.388C189.63 128.547 187.937 131.397 185.802 133.759C185.662 133.911 185.525 134.061 185.383 134.206C186.73 136.438 187.941 138.778 189.005 141.208C189.949 143.351 190.779 145.559 191.489 147.821Z" fill="white"/>
<path d="M135.435 116.041L134.556 186.303L63.584 183.931L74.9181 154.798C74.8367 153.863 79.8928 147.302 79.8637 146.329C79.7764 143.48 81.6034 140.841 81.9001 137.86C82.5053 131.712 79.0404 108.494 80.6376 103.697C81.3179 101.555 82.1897 99.5019 83.2384 97.5721C84.146 95.9731 85.077 94.8959 85.9672 94.5063L88.5912 87.3856L90.9186 83.3205L109.179 77.023L111.198 76.3252L115.908 81.6776L119.239 85.4649L122.373 86.0983C122.841 86.1932 123.295 86.305 123.731 86.4337C125.833 86.9981 127.792 88.1281 129.451 89.7332C134.92 95.1431 135.557 105.319 135.435 116.041Z" fill="#7936FC"/>
<path d="M176.192 185.775C174.191 188.699 172.07 191.502 169.83 194.183L162.155 194.19L120.883 194.244L113.453 194.254L108.513 194.261L101.164 194.268L95.5119 194.275L85.0709 194.288L78.9121 194.299L65.943 194.312L59.7523 194.322L42.5969 194.343L31.8213 194.356L28.9296 194.359C28.2867 193.594 27.6534 192.817 27.0299 192.029C25.4764 190.067 23.9821 188.045 22.5469 185.962L28.534 185.955L32.6126 185.952L42.0558 185.938L60.2789 185.918L66.4376 185.911L68.9278 185.908H68.9366L70.8915 185.904L71.7672 185.901L74.0102 185.897H74.9586L81.6089 185.891L95.9541 185.87L102.267 185.863L108.312 185.857L113.979 185.85L122.11 185.84L165.539 185.789L176.192 185.775Z" fill="#CCCCCC"/>
<path d="M78.0021 80.2759L77.9864 80.2776C77.1471 80.3686 76.3112 80.0676 75.6625 79.4408C75.0139 78.8141 74.6056 77.913 74.5275 76.9357L72.8731 56.3733C72.5736 52.6897 72.9133 48.9736 73.8719 45.4458C75.7508 38.5608 79.839 32.7856 85.2845 29.3239C88.0963 27.5412 91.1889 26.4398 94.376 26.0862C107.415 24.6397 112.18 27.8019 120.234 50.9583C128.288 74.1146 121.891 71.552 121.891 71.552C121.931 72.0476 121.886 72.5475 121.756 73.022C121.503 73.9478 120.952 74.7237 120.219 75.1877C119.843 75.4253 119.429 75.5723 119.003 75.6202C103.588 80.1827 88.0345 84.9854 77.9995 80.2762L78.0021 80.2759Z" fill="#2F2E41"/>
<path d="M106.693 45.57C108.628 48.9037 109.671 52.8304 109.69 56.8541C109.71 60.8778 108.705 64.8181 106.803 68.1772C104.9 71.5363 102.186 74.1636 99.0019 75.7273C95.818 77.291 92.3076 77.7209 88.9139 76.9628C86.6674 76.4694 84.5274 75.4619 82.6177 73.9985C80.708 72.5352 79.0667 70.6451 77.7888 68.4379C75.8579 65.1052 74.8176 61.1815 74.7991 57.1613C74.7806 53.1412 75.7846 49.2046 77.6847 45.8481C79.5848 42.4915 82.2958 39.8651 85.476 38.3002C88.6561 36.7352 92.1629 36.3017 95.5544 37.0542C97.8026 37.5447 99.9449 38.55 101.857 40.012C103.769 41.4739 105.413 43.3634 106.693 45.5707L106.693 45.57Z" fill="#9E616A"/>
<path d="M67.4056 58.6578C67.1689 55.7445 67.4376 52.8055 68.1957 50.0155C68.3715 43.1904 70.072 37.0086 77.2207 37.2681C79.4305 35.8683 81.8595 35.0004 84.3632 34.716L87.8959 34.3098C87.9356 34.3052 87.9753 34.3007 88.015 34.2964C90.4625 34.0312 92.9309 34.3299 95.2792 35.1755C97.6276 36.021 99.8099 37.397 101.702 39.2246C103.593 41.0523 105.157 43.296 106.304 45.8275C107.451 48.359 108.159 51.1289 108.387 53.9788L108.42 54.3907L100.946 55.2415L97.7293 47.2259L97.8881 55.5913L94.0279 56.0325L92.4057 51.9884L92.4849 56.2062C86.7534 62.0842 78.0623 62.3923 67.4421 59.0701L67.4056 58.6578Z" fill="#2F2E41"/>
<path d="M91.3128 78.1699C91.2493 78.8474 91.3502 79.5321 91.6042 80.1461C91.7322 80.4605 91.8974 80.7526 92.095 81.0137C92.2641 81.236 92.4552 81.4343 92.6642 81.6045C93.2834 82.1064 94.0359 82.3351 94.7867 82.2493C94.8335 82.2437 94.8802 82.2371 94.9268 82.2294C94.9734 82.2218 95.0199 82.2128 95.0663 82.2027C95.1132 82.1929 95.1597 82.1817 95.2059 82.1689C95.2521 82.1562 95.2984 82.1424 95.3449 82.1276L97.9534 81.2764L100.877 71.7847L101.547 80.1136L113.409 76.2681L110.565 40.9238L90.3477 43.2435L90.9021 43.8652C92.7444 45.9532 94.0562 48.5926 94.6932 51.4929C95.3255 54.4318 95.5207 57.4752 95.2702 60.4909C95.0363 63.5403 94.5514 66.5565 93.8223 69.498C93.1877 72.1026 92.4247 74.6625 91.5371 77.1649C91.4224 77.486 91.3469 77.8243 91.3128 78.1699Z" fill="#2F2E41"/>
<path d="M94.0087 189.605C93.6611 189.605 93.3179 189.515 93.004 189.341L36.9966 191.005C36.5669 190.768 36.2089 190.384 35.9702 189.906C35.7314 189.427 35.6229 188.875 35.6592 188.323C35.6954 187.77 35.8747 187.244 36.1732 186.813C36.4717 186.382 36.8755 186.067 37.3312 185.908L73.9728 173.186C74.3523 173.055 74.7541 173.037 75.1411 173.134L131.819 181.178C132.321 181.305 132.773 181.619 133.107 182.072C133.441 182.526 133.639 183.094 133.669 183.691C133.7 184.287 133.562 184.879 133.276 185.376C132.991 185.872 132.574 186.246 132.089 186.441L94.7762 189.455C94.5293 189.554 94.2699 189.605 94.0087 189.605Z" fill="#3F3D56"/>
<path d="M96.0692 185.066C95.8162 185.066 95.5675 184.99 95.3468 184.847L49.8606 187.321C49.6023 187.153 49.3936 186.897 49.2617 186.588C49.1298 186.28 49.0808 185.932 49.1211 185.59C49.1614 185.249 49.2891 184.929 49.4876 184.673C49.6861 184.417 49.9462 184.237 50.234 184.155L66.7009 179.501C66.958 179.429 67.2269 179.438 67.4798 179.528L109.766 179.469C110.067 179.576 110.33 179.793 110.518 180.087C110.706 180.381 110.808 180.738 110.809 181.105C110.81 181.471 110.71 181.829 110.524 182.124C110.338 182.42 110.076 182.639 109.776 182.749L96.5091 184.988C96.3667 185.039 96.2184 185.066 96.0692 185.066Z" fill="#2F2E41"/>
<path d="M91.2815 182.243C92.0688 182.834 92.9579 183.217 93.886 183.364C94.8141 183.512 95.7588 183.421 96.6534 183.097C97.548 182.774 98.3709 182.226 99.064 181.492C99.7571 180.759 100.304 179.857 100.665 178.85L148.811 183.254L146.483 169.365L96.8244 168.814C95.3323 168.219 93.7046 168.282 92.2498 168.991C90.795 169.701 89.6141 171.006 88.9308 172.662C88.2476 174.317 88.1095 176.206 88.5428 177.972C88.976 179.738 89.9505 181.258 91.2815 182.243Z" fill="#A0616A"/>
<path d="M119.719 91.7899C119.719 91.7899 126.992 85.0147 135.719 97.21C141.605 105.434 152.959 155.153 153.9 175.755C153.96 177.059 153.787 178.363 153.394 179.585C153 180.808 152.394 181.922 151.614 182.859C150.833 183.796 149.894 184.535 148.857 185.03C147.819 185.525 146.705 185.765 145.584 185.735L119.922 185.215L117.053 166.431L137.313 166.71L119.719 91.7899Z" fill="#7936FC"/>
<path d="M90.8947 189.613C90.0144 189.612 89.143 189.407 88.3317 189.009L36.4198 190.388C35.0497 189.723 33.9125 188.539 33.1918 187.028C32.4712 185.516 32.2093 183.766 32.4485 182.061L30.5195 128.973C30.7753 127.077 31.6324 125.362 32.9216 124.165C34.2107 122.969 35.8382 122.379 37.4827 122.512L85.677 124.84C86.6021 124.91 87.5041 125.207 88.3246 125.709C89.145 126.212 89.8656 126.91 90.4395 127.758C91.0134 128.606 91.4278 129.584 91.656 130.631C91.8841 131.677 91.9208 132.768 91.7637 133.832L97.4102 183.212C97.1447 185.001 96.3457 186.624 95.154 187.795C93.9622 188.965 92.454 189.609 90.8947 189.613Z" fill="#3F3D56"/>
<path d="M51.4748 31.5619L29.8101 31.4907C29.2294 31.4899 28.6721 31.7573 28.2604 32.2342C27.8487 32.7111 27.6161 33.3586 27.6137 34.0348L27.5352 67.4397C27.5339 68.1152 27.763 68.7636 28.1722 69.2426C28.5813 69.7215 29.1369 69.9917 29.717 69.9939L41.7348 70.0345L51.3846 70.065C51.9651 70.0663 52.5224 69.799 52.9337 69.3219C53.3451 68.8448 53.5768 68.197 53.5781 67.521L53.5839 65.546L53.6595 34.1195C53.6607 33.4431 53.4313 32.7938 53.0216 32.3143C52.612 31.8347 52.0556 31.5641 51.4748 31.5619Z" fill="#E6E6E6"/>
<path d="M49.9486 33.5571L31.3299 33.4961C30.7862 33.4953 30.2644 33.7455 29.8789 34.1919C29.4933 34.6383 29.2755 35.2445 29.2731 35.8776L29.2207 57.3548C29.2171 60.1753 30.1743 62.8824 31.8824 64.8822C33.5905 66.882 35.9101 68.0112 38.3322 68.0223L41.8698 68.0324L49.8671 68.0595C50.411 68.0609 50.933 67.8109 51.3187 67.3643C51.7043 66.9178 51.922 66.3113 51.9239 65.6781L51.9297 63.5168L51.9937 35.9521C51.9949 35.3188 51.7802 34.7109 51.3967 34.2618C51.0133 33.8128 50.4924 33.5593 49.9486 33.5571Z" fill="white"/>
<path d="M47.8568 48.2324H33.34C33.2256 48.2324 33.1123 48.2587 33.0066 48.3097C32.9009 48.3606 32.8048 48.4354 32.7239 48.5296C32.643 48.6238 32.5789 48.7356 32.5351 48.8587C32.4913 48.9818 32.4688 49.1138 32.4688 49.247C32.4688 49.3802 32.4913 49.5122 32.5351 49.6353C32.5789 49.7584 32.643 49.8702 32.7239 49.9644C32.8048 50.0586 32.9009 50.1334 33.0066 50.1844C33.1123 50.2353 33.2256 50.2616 33.34 50.2616H47.8568C48.0879 50.2616 48.3095 50.1547 48.4729 49.9644C48.6363 49.7741 48.7281 49.5161 48.7281 49.247C48.7281 48.9779 48.6363 48.7199 48.4729 48.5296C48.3095 48.3393 48.0879 48.2324 47.8568 48.2324Z" fill="#7936FC"/>
<path d="M36.5314 42.6699H33.34C33.109 42.6699 32.8874 42.7768 32.724 42.9671C32.5606 43.1574 32.4688 43.4154 32.4688 43.6845C32.4687 43.9536 32.5606 44.2116 32.724 44.4019C32.8874 44.5922 33.109 44.6991 33.34 44.6991H36.5314C36.7625 44.6991 36.9841 44.5922 37.1475 44.4019C37.3109 44.2116 37.4027 43.9536 37.4027 43.6845C37.4027 43.4154 37.3109 43.1574 37.1475 42.9671C36.9841 42.7768 36.7625 42.6699 36.5314 42.6699Z" fill="#7936FC"/>
<path d="M47.8568 57.1519H33.34C33.109 57.1519 32.8873 57.2588 32.7239 57.449C32.5605 57.6393 32.4688 57.8973 32.4688 58.1664C32.4687 58.4355 32.5605 58.6936 32.7239 58.8839C32.8873 59.0741 33.109 59.181 33.34 59.181H47.8568C48.0879 59.181 48.3095 59.0741 48.4729 58.8839C48.6363 58.6936 48.7281 58.4355 48.7281 58.1664C48.7281 57.8973 48.6363 57.6393 48.4729 57.449C48.3095 57.2588 48.0879 57.1519 47.8568 57.1519Z" fill="#7936FC"/>
<path d="M47.8554 52.6938H33.3386C33.1079 52.6938 32.8866 52.8006 32.7235 52.9905C32.5604 53.1805 32.4688 53.4381 32.4688 53.7067C32.4688 53.9754 32.5604 54.233 32.7235 54.4229C32.8866 54.6129 33.1079 54.7196 33.3386 54.7196H47.8554C48.0861 54.7196 48.3073 54.6129 48.4704 54.4229C48.6336 54.233 48.7252 53.9754 48.7252 53.7067C48.7252 53.4381 48.6336 53.1805 48.4704 52.9905C48.3073 52.8006 48.0861 52.6938 47.8554 52.6938Z" fill="#7936FC"/>
<path d="M45.0349 46.2575C44.0155 46.2575 43.019 45.9055 42.1715 45.2461C41.3239 44.5866 40.6633 43.6493 40.2732 42.5527C39.8831 41.456 39.781 40.2493 39.9799 39.0851C40.1788 37.9209 40.6696 36.8516 41.3904 36.0122C42.1112 35.1729 43.0296 34.6013 44.0294 34.3697C45.0291 34.1381 46.0654 34.257 47.0072 34.7112C47.949 35.1655 48.7539 35.9347 49.3203 36.9217C49.8866 37.9086 50.1889 39.069 50.1889 40.256C50.1873 41.8471 49.6438 43.3726 48.6776 44.4977C47.7114 45.6228 46.4013 46.2557 45.0349 46.2575ZM45.0349 34.6715C44.0863 34.6715 43.1591 34.999 42.3704 35.6126C41.5818 36.2262 40.9671 37.0984 40.6041 38.1189C40.2411 39.1393 40.1461 40.2621 40.3312 41.3454C40.5162 42.4287 40.973 43.4238 41.6437 44.2048C42.3144 44.9858 43.1689 45.5177 44.0992 45.7332C45.0295 45.9486 45.9938 45.838 46.8701 45.4154C47.7465 44.9927 48.4955 44.2769 49.0224 43.3585C49.5494 42.4402 49.8307 41.3605 49.8307 40.256C49.8292 38.7754 49.3235 37.3559 48.4244 36.309C47.5254 35.2621 46.3064 34.6732 45.0349 34.6715Z" fill="#7936FC"/>
<path d="M47.1997 42.5804C46.8437 40.4402 46.1022 38.4121 45.0241 36.6298C44.9998 36.5835 44.9657 36.5454 44.9251 36.5189C44.8845 36.4924 44.8387 36.4785 44.7922 36.4785C44.7457 36.4785 44.6999 36.4924 44.6593 36.5189C44.6187 36.5454 44.5846 36.5835 44.5602 36.6298C43.6213 38.542 43.0212 40.6541 42.7953 42.8411C42.7535 43.2398 43.2912 43.2363 43.3325 42.8411C43.408 42.1324 43.5257 41.4306 43.6847 40.7408C43.7053 40.7361 43.7254 40.7289 43.7447 40.7194C44.4591 40.3018 45.2662 40.1487 46.0575 40.2809C46.0644 40.2821 46.071 40.2803 46.0779 40.2811C46.3392 41.0814 46.5412 41.9063 46.6816 42.7467C46.7471 43.1416 47.2651 42.9744 47.1997 42.5804ZM43.8781 39.9736C44.1247 39.0828 44.4386 38.2192 44.8162 37.3929C45.2159 38.1039 45.5629 38.8532 45.8536 39.6327C45.1815 39.5739 44.5066 39.6903 43.8781 39.9736Z" fill="#7936FC"/>
</g>
<defs>
<clipPath id="clip0_666_539">
<rect width="196.66" height="229" fill="white" transform="translate(0.103516)"/>
</clipPath>
</defs>
</svg>
