<svg width="234" height="184" viewBox="0 0 234 184" fill="none" xmlns="http://www.w3.org/2000/svg">
<path d="M211.259 89.5835H16.2441V94.2934H211.259V89.5835Z" fill="#E6E6E6"/>
<path d="M22.193 87.4545C22.6706 86.9768 22.9688 86.325 22.9688 85.6013V74.3504C22.9688 73.6191 22.6662 72.9573 22.182 72.4774C21.9298 72.2293 21.6239 72.0307 21.2876 71.895C20.9749 71.7726 20.6353 71.7031 20.2789 71.7031C18.7928 71.7031 17.5891 72.8878 17.5891 74.3504V85.6013C17.5891 86.2641 17.838 86.8682 18.2466 87.3325C17.058 87.9379 16.2441 89.1568 16.2441 90.5649H23.9775C23.9775 89.2451 23.2613 88.0928 22.193 87.4545Z" fill="#3F3D56"/>
<path d="M209.33 87.037C209.893 86.5519 210.25 85.841 210.25 85.0461V73.7952C210.25 72.3326 209.046 71.1479 207.56 71.1479C207.204 71.1479 206.864 71.2174 206.551 71.3399C206.215 71.4755 205.909 71.6741 205.657 71.9223C205.173 72.4021 204.87 73.0639 204.87 73.7952V85.0461C204.87 85.7859 205.183 86.4495 205.679 86.9297C204.409 87.506 203.525 88.7669 203.525 90.2338H211.259C211.259 88.8544 210.479 87.6545 209.33 87.037Z" fill="#3F3D56"/>
<path d="M21.0287 93.9995H16.2441V97.5138H21.0287V93.9995Z" fill="#E6E6E6"/>
<path d="M23.7025 97.5138H18.6355L18.4136 96.852L17.5528 94.2941L17.5293 94.2246L18.1816 93.9996L22.0449 92.666L22.5997 94.2941L23.4739 96.852L23.7025 97.5138Z" fill="#E6E6E6"/>
<path d="M209.974 94.2246L209.95 94.2941L209.09 96.852L208.868 97.5138H203.801L204.029 96.852L204.904 94.2941L205.458 92.666L209.322 93.9996L209.974 94.2246Z" fill="#E6E6E6"/>
<path d="M211.259 93.9995H206.475V97.5138H211.259V93.9995Z" fill="#E6E6E6"/>
<path d="M115.096 0.557617H25.6582V34.6412H115.096V0.557617Z" fill="#3F3D56"/>
<path d="M115.096 0.557617H25.6582V34.6412H115.096V0.557617Z" fill="#3F3D56"/>
<path d="M27.0039 0.557617V33.3175H94.7192C105.231 33.3175 113.752 24.9312 113.752 14.586V0.557617H27.0039Z" fill="white"/>
<path d="M226.158 0.557617H8.40648C4.2002 0.557617 0.777344 3.92626 0.777344 8.06592V90.0054C0.777344 94.1451 4.2002 97.5137 8.40648 97.5137H226.158C230.364 97.5137 233.787 94.1451 233.787 90.0054V8.06592C233.787 3.92626 230.364 0.557617 226.158 0.557617ZM233.115 90.0054C233.115 93.7877 230.001 96.8519 226.158 96.8519H8.40648C4.56333 96.8519 1.44981 93.7877 1.44981 90.0054V8.06592C1.44981 4.28365 4.56333 1.21943 8.40648 1.21943H180.77C209.679 1.21943 233.115 24.2837 233.115 52.7352V90.0054Z" fill="#3F3D56"/>
<path d="M122.281 69.7935H109.797C109.431 69.7935 109.135 70.088 109.135 70.452V89.8597H122.951V70.452C122.951 70.088 122.651 69.7935 122.281 69.7935ZM117.557 79.3732C117.557 79.7008 117.446 79.9987 117.258 80.2435C116.989 80.5943 116.562 80.8226 116.081 80.8226C115.604 80.8226 115.177 80.5943 114.908 80.2435C114.72 79.9987 114.609 79.7008 114.609 79.3732V77.1198C114.615 76.3289 115.274 75.6836 116.081 75.6836C116.888 75.6836 117.551 76.3289 117.557 77.1198V79.3732Z" fill="#2F2E41"/>
<path d="M109.092 89.2412V91.1108C109.092 91.3127 109.257 91.4782 109.462 91.4782H122.622C122.824 91.4782 122.992 91.3127 122.992 91.1108V89.2412H109.092Z" fill="#3F3D56"/>
<path d="M142.957 39.5054H89.5896C88.638 39.5054 87.8613 40.2698 87.8613 41.2062V76.6465C87.8613 77.5863 88.638 78.3507 89.5896 78.3507H142.957C143.908 78.3507 144.685 77.5863 144.685 76.6465V41.2062C144.685 40.2698 143.908 39.5054 142.957 39.5054V39.5054Z" fill="#3F3D56"/>
<path d="M142.507 40.7334H90.0379C89.5273 40.7334 89.1133 41.1408 89.1133 41.6434V66.0417C89.1133 72.1348 94.1787 77.1201 100.37 77.1201H142.511C143.019 77.1201 143.435 76.7106 143.435 76.2101V41.6467C143.435 41.1444 143.018 40.7334 142.507 40.7334Z" fill="white"/>
<path d="M132.85 91.4483L132.45 89.5853L132.366 89.1849C132.312 88.9235 132.077 88.7349 131.804 88.7349H101.553C101.284 88.7349 101.049 88.9235 100.992 89.1849L100.908 89.5853L100.508 91.4483C100.474 91.6171 100.514 91.7891 100.625 91.9215C100.733 92.0539 100.898 92.13 101.069 92.13H132.288C132.463 92.13 132.625 92.0539 132.736 91.9215C132.843 91.7891 132.887 91.6171 132.85 91.4483H132.85Z" fill="#3F3D56"/>
<path d="M102.615 89.1431H101.901C101.833 89.1431 101.777 89.1978 101.777 89.2653V89.5891C101.777 89.6566 101.833 89.7114 101.901 89.7114H102.615C102.683 89.7114 102.739 89.6566 102.739 89.5891V89.2653C102.739 89.1978 102.683 89.1431 102.615 89.1431Z" fill="#E6E6E6"/>
<path d="M131.437 90.0894H130.724C130.655 90.0894 130.6 90.1441 130.6 90.2116V90.5354C130.6 90.603 130.655 90.6577 130.724 90.6577H131.437C131.506 90.6577 131.561 90.603 131.561 90.5354V90.2116C131.561 90.1441 131.506 90.0894 131.437 90.0894Z" fill="#E6E6E6"/>
<path d="M118.552 91.2246H111.108C111.04 91.2246 110.984 91.2794 110.984 91.3469V91.6707C110.984 91.7382 111.04 91.793 111.108 91.793H118.552C118.621 91.793 118.676 91.7382 118.676 91.6707V91.3469C118.676 91.2794 118.621 91.2246 118.552 91.2246Z" fill="#E6E6E6"/>
<path d="M32.2681 65.0496C28.2328 51.8804 27.9801 38.6926 32.738 25.4803C32.7598 23.8127 34.1489 22.4772 35.8433 22.4948L66.2078 22.8441C67.9022 22.8655 69.2592 24.2326 69.2413 25.9002L68.7714 65.4695C68.7496 67.137 67.3605 68.4726 65.6661 68.4549L35.3016 68.1056C33.6073 68.0843 32.2502 66.7171 32.2681 65.0496L32.2681 65.0496Z" fill="#F2F2F2"/>
<path opacity="0.2" d="M38.5682 66.6171C36.8739 66.5957 35.5169 65.2286 35.5347 63.561C31.4994 50.3918 31.2467 37.204 36.0047 23.9917C36.0142 23.4658 36.1647 22.9519 36.4408 22.5017L35.8433 22.4948C34.1489 22.4772 32.7598 23.8127 32.738 25.4802C27.9801 38.6926 28.2328 51.8803 32.2681 65.0496C32.2502 66.7171 33.6072 68.0842 35.3016 68.1056L65.6661 68.455C66.764 68.4639 67.7826 67.8933 68.3352 66.9595L38.5682 66.6171Z" fill="black"/>
<path d="M60.9341 44.9524L40.5856 44.7738C39.9113 44.7671 39.3702 44.2237 39.377 43.5601C39.3838 42.8976 39.9342 42.3655 40.6073 42.3706L60.9559 42.5492C61.6301 42.5572 62.1701 43.1017 62.162 43.7652C62.1539 44.4259 61.6054 44.9562 60.9341 44.9523L60.9341 44.9524Z" fill="white"/>
<path d="M45.1222 38.2238L40.6456 38.1845C39.9713 38.1807 39.4278 37.6396 39.4317 36.976C39.4355 36.3123 39.9853 35.7775 40.6596 35.7813L40.6674 35.7814L45.144 35.8206C45.8183 35.8286 46.3583 36.3731 46.3501 37.0367C46.342 37.6973 45.7935 38.2276 45.1222 38.2238V38.2238Z" fill="white"/>
<path d="M60.8379 55.5173L40.4894 55.3387C39.8152 55.3307 39.2752 54.7862 39.2833 54.1227C39.2914 53.462 39.8399 52.9318 40.5112 52.9356L60.8597 53.1141C61.534 53.1179 62.0775 53.659 62.0736 54.3227C62.0697 54.9863 61.5199 55.5212 60.8456 55.5173L60.8379 55.5173V55.5173Z" fill="white"/>
<path d="M60.8862 50.2346L40.5377 50.0561C39.8634 50.0509 39.321 49.5088 39.3262 48.8452C39.3314 48.1816 39.8823 47.6477 40.5566 47.6529L40.5595 47.6529L60.908 47.8315C61.5822 47.8395 62.1222 48.3839 62.1141 49.0475C62.106 49.7081 61.5575 50.2384 60.8862 50.2346L60.8862 50.2346H60.8862Z" fill="white"/>
<path d="M39.9601 28.6446C41.4115 28.6446 42.5882 27.4866 42.5882 26.0581C42.5882 24.6297 41.4115 23.4717 39.9601 23.4717C38.5087 23.4717 37.332 24.6297 37.332 26.0581C37.332 27.4866 38.5087 28.6446 39.9601 28.6446Z" fill="#3F3D56"/>
<path d="M62.089 29.3062C63.5405 29.3062 64.7171 28.1482 64.7171 26.7197C64.7171 25.2913 63.5405 24.1333 62.089 24.1333C60.6376 24.1333 59.4609 25.2913 59.4609 26.7197C59.4609 28.1482 60.6376 29.3062 62.089 29.3062Z" fill="#3F3D56"/>
<path d="M92.7103 45.3732C93.327 45.3732 93.8269 44.8702 93.8269 44.2498C93.8269 43.6294 93.327 43.1265 92.7103 43.1265C92.0936 43.1265 91.5938 43.6294 91.5938 44.2498C91.5938 44.8702 92.0936 45.3732 92.7103 45.3732Z" fill="#F2F2F2"/>
<path d="M96.5677 45.3732C97.1844 45.3732 97.6843 44.8702 97.6843 44.2498C97.6843 43.6294 97.1844 43.1265 96.5677 43.1265C95.9511 43.1265 95.4512 43.6294 95.4512 44.2498C95.4512 44.8702 95.9511 45.3732 96.5677 45.3732Z" fill="#F2F2F2"/>
<path d="M100.425 45.3732C101.042 45.3732 101.542 44.8702 101.542 44.2498C101.542 43.6294 101.042 43.1265 100.425 43.1265C99.8085 43.1265 99.3086 43.6294 99.3086 44.2498C99.3086 44.8702 99.8085 45.3732 100.425 45.3732Z" fill="#F2F2F2"/>
<path d="M104.823 45.1375C104.789 45.1375 104.754 45.1244 104.729 45.0984L103.975 44.3404C103.925 44.2899 103.925 44.2092 103.975 44.1587L104.729 43.4008C104.78 43.3496 104.863 43.3487 104.915 43.3988C104.967 43.449 104.968 43.5313 104.917 43.5825L104.254 44.2496L104.917 44.9167C104.968 44.968 104.967 45.0502 104.915 45.1004C104.89 45.1252 104.856 45.1375 104.823 45.1375V45.1375Z" fill="#F2F2F2"/>
<path d="M106.089 45.1376C106.056 45.1376 106.022 45.1253 105.997 45.1005C105.945 45.0503 105.944 44.9681 105.995 44.9168L106.658 44.2497L105.995 43.5826C105.944 43.5314 105.945 43.4491 105.997 43.3989C106.049 43.3487 106.132 43.3496 106.183 43.4009L106.937 44.1588C106.987 44.2093 106.987 44.29 106.937 44.3405L106.183 45.0985C106.158 45.1245 106.123 45.1376 106.089 45.1376V45.1376Z" fill="#F2F2F2"/>
<path d="M136.788 43.2563H135.387C135.227 43.2563 135.098 43.3837 135.098 43.5409V44.9209C135.098 45.0781 135.227 45.2055 135.387 45.2055H136.788C136.947 45.2055 137.078 45.0781 137.078 44.9209V43.5409C137.078 43.3837 136.947 43.2563 136.788 43.2563Z" fill="#F2F2F2"/>
<path d="M133.356 43.2563H131.955C131.795 43.2563 131.666 43.3837 131.666 43.5409V44.9209C131.666 45.0781 131.795 45.2055 131.955 45.2055H133.356C133.516 45.2055 133.647 45.0781 133.647 44.9209V43.5409C133.647 43.3837 133.516 43.2563 133.356 43.2563Z" fill="#F2F2F2"/>
<path d="M140.022 43.3213H138.621C138.461 43.3213 138.332 43.4486 138.332 43.6059V44.9859C138.332 45.1431 138.461 45.2704 138.621 45.2704H140.022C140.182 45.2704 140.313 45.1431 140.313 44.9859V43.6059C140.313 43.4486 140.182 43.3213 140.022 43.3213Z" fill="#F2F2F2"/>
<path d="M121.549 43.8467H116.161C115.966 43.8467 115.809 44.0028 115.809 44.194C115.809 44.3852 115.966 44.5413 116.161 44.5413H121.549C121.744 44.5413 121.902 44.3852 121.902 44.194C121.902 44.0028 121.744 43.8467 121.549 43.8467Z" fill="#F2F2F2"/>
<path d="M102.685 11.2099C102.053 9.1448 102.013 7.07674 102.759 5.00482C102.763 4.74332 102.98 4.53389 103.246 4.53665L108.008 4.59142C108.273 4.59478 108.486 4.80917 108.483 5.07067L108.41 11.2758C108.406 11.5373 108.188 11.7467 107.923 11.744L103.161 11.6892C102.895 11.6858 102.683 11.4714 102.685 11.2099Z" fill="#F2F2F2"/>
<path opacity="0.2" d="M103.673 11.4553C103.408 11.4519 103.195 11.2375 103.198 10.976C102.565 8.91087 102.525 6.84281 103.271 4.77089C103.273 4.68844 103.296 4.60784 103.34 4.53724L103.246 4.53616C102.98 4.5334 102.763 4.74283 102.759 5.00433C102.013 7.07625 102.053 9.1443 102.685 11.2094C102.683 11.4709 102.895 11.6853 103.161 11.6887L107.923 11.7435C108.095 11.7449 108.255 11.6554 108.341 11.509L103.673 11.4553Z" fill="black"/>
<path d="M92.5995 11.2099C91.9667 9.1448 91.927 7.07674 92.6732 5.00482C92.6766 4.74332 92.8944 4.53389 93.1601 4.53665L97.9218 4.59142C98.1875 4.59478 98.4003 4.80917 98.3975 5.07067L98.3238 11.2758C98.3204 11.5373 98.1025 11.7467 97.8368 11.744L93.0752 11.6892C92.8095 11.6858 92.5967 11.4714 92.5995 11.2099Z" fill="#F2F2F2"/>
<path opacity="0.2" d="M93.5874 11.4553C93.3217 11.4519 93.1089 11.2375 93.1117 10.976C92.4789 8.91087 92.4393 6.84281 93.1854 4.77089C93.1869 4.68844 93.2105 4.60784 93.2538 4.53724L93.1601 4.53616C92.8944 4.5334 92.6766 4.74283 92.6732 5.00433C91.927 7.07625 91.9667 9.1443 92.5995 11.2094C92.5967 11.4709 92.8095 11.6853 93.0752 11.6887L97.8368 11.7435C98.009 11.7449 98.1687 11.6554 98.2554 11.509L93.5874 11.4553Z" fill="black"/>
<path d="M84.5292 11.2099C83.8964 9.1448 83.8567 7.07674 84.6029 5.00482C84.6063 4.74332 84.8241 4.53389 85.0898 4.53665L89.8515 4.59142C90.1172 4.59478 90.33 4.80917 90.3272 5.07067L90.2535 11.2758C90.2501 11.5373 90.0322 11.7467 89.7665 11.744L85.0049 11.6892C84.7392 11.6858 84.5264 11.4714 84.5292 11.2099Z" fill="#F2F2F2"/>
<path opacity="0.2" d="M85.5171 11.4553C85.2514 11.4519 85.0386 11.2375 85.0414 10.976C84.4086 8.91087 84.369 6.84281 85.1151 4.77089C85.1166 4.68844 85.1402 4.60784 85.1835 4.53724L85.0898 4.53616C84.8241 4.5334 84.6063 4.74283 84.6029 5.00433C83.8567 7.07625 83.8964 9.1443 84.5292 11.2094C84.5264 11.4709 84.7392 11.6853 85.0049 11.6887L89.7665 11.7435C89.9387 11.7449 90.0985 11.6554 90.1851 11.509L85.5171 11.4553Z" fill="black"/>
<path d="M87.8116 6.86921C88.3223 6.86921 88.7364 6.46171 88.7364 5.95902C88.7364 5.45634 88.3223 5.04883 87.8116 5.04883C87.3008 5.04883 86.8867 5.45634 86.8867 5.95902C86.8867 6.46171 87.3008 6.86921 87.8116 6.86921Z" fill="#3F3D56"/>
<path d="M95.544 6.86921C96.0548 6.86921 96.4688 6.46171 96.4688 5.95902C96.4688 5.45634 96.0548 5.04883 95.544 5.04883C95.0332 5.04883 94.6191 5.45634 94.6191 5.95902C94.6191 6.46171 95.0332 6.86921 95.544 6.86921Z" fill="#3F3D56"/>
<path d="M105.296 6.86921C105.807 6.86921 106.221 6.46171 106.221 5.95902C106.221 5.45634 105.807 5.04883 105.296 5.04883C104.785 5.04883 104.371 5.45634 104.371 5.95902C104.371 6.46171 104.785 6.86921 105.296 6.86921Z" fill="#3F3D56"/>
<path d="M22.2964 74.3499V85.6008C22.2964 86.3318 21.9955 86.9928 21.5094 87.4717C21.1809 87.7953 20.6152 87.5516 20.6152 87.0942V72.8524C20.6152 72.3992 21.1751 72.1505 21.502 72.4696L21.5096 72.477C21.9938 72.9568 22.2964 73.6186 22.2964 74.3499L22.2964 74.3499Z" fill="#7936FC"/>
<path d="M205.543 73.7952V85.0461C205.543 85.7772 205.844 86.4381 206.33 86.917C206.658 87.2406 207.224 86.9969 207.224 86.5395V72.2977C207.224 71.8446 206.664 71.5958 206.337 71.9149L206.33 71.9223C205.846 72.4021 205.543 73.0639 205.543 73.7952V73.7952Z" fill="#7936FC"/>
<path d="M169.903 10.4849H146.703V37.6193H169.903V10.4849Z" fill="#3F3D56"/>
<path d="M148.047 36.2958H168.557V11.8086H148.047V36.2958Z" fill="white"/>
<path d="M158.248 13.7939C156.739 13.7939 155.323 14.1976 154.109 14.8992C152.381 15.8985 151.056 17.5034 150.441 19.4194C150.196 20.1871 150.064 21.0011 150.064 21.8482V34.3102H166.54V13.7939H158.248Z" fill="#3F3D56"/>
<path d="M162.567 34.301H153.092C153.551 33.0215 154.529 31.9828 155.779 31.4354C156.406 31.1584 157.099 31.0034 157.83 31.0034C158.356 31.0034 158.865 31.0826 159.341 31.2342C160.845 31.6992 162.045 32.8434 162.567 34.301Z" fill="#7936FC"/>
<path d="M151.409 29.0161C150.945 29.0161 150.491 29.079 150.064 29.1948V34.3107H156.439C156.45 34.2015 156.453 34.0923 156.453 33.9798C156.453 33.0499 156.191 32.1763 155.74 31.4351C154.856 29.9857 153.249 29.0161 151.409 29.0161Z" fill="#7936FC"/>
<path d="M166.54 19.4103V15.1235C165.703 14.5036 164.657 14.1343 163.525 14.1343C161.779 14.1343 160.241 15.0114 159.34 16.3436C158.864 16.1919 158.355 16.1128 157.829 16.1128C157.098 16.1128 156.405 16.2678 155.778 16.5448C155.768 16.5491 155.759 16.5549 155.749 16.5593C155.746 16.5543 155.743 16.549 155.74 16.544C155.334 15.8789 154.775 15.313 154.11 14.8994C152.381 15.8987 151.057 17.5036 150.441 19.4196H153.095C153.941 21.6702 154.814 23.104 155.71 23.8666C153.855 24.7191 153.146 26.9828 154.116 28.7616C156.027 32.2638 157.515 32.9909 158.79 32.3172C158.603 32.8348 158.499 33.391 158.499 33.9715C158.499 34.0836 158.502 34.1924 158.512 34.3012H166.54V30.0144C165.703 29.3945 164.657 29.0251 163.525 29.0251C162.61 29.0251 161.753 29.268 161.013 29.6894L161.029 29.6616C162.065 27.8451 163.996 26.6996 166.112 26.6996H166.54V22.4128C165.703 21.7928 164.657 21.4235 163.525 21.4235C162.458 21.4235 161.47 21.7521 160.657 22.3107L160.689 22.2695C162.099 20.4846 164.243 19.4103 166.54 19.4103L166.54 19.4103Z" fill="#7936FC"/>
<path d="M157.798 15.4482H157.463V34.31H157.798V15.4482Z" fill="#3F3D56"/>
<path d="M171.308 178.143L168.758 178.122L167.629 168.214L171.393 168.245L171.308 178.143Z" fill="#FFB6B6"/>
<path d="M163.139 182.134C163.133 182.752 163.639 183.26 164.269 183.266L169.34 183.308L170.228 181.537L170.554 183.317L172.467 183.334L171.984 176.985L171.319 176.942L168.603 176.757L167.727 176.7L167.712 178.496L163.638 181.215C163.328 181.422 163.142 181.766 163.139 182.134V182.134Z" fill="#2F2E41"/>
<path d="M199.205 178.143L196.654 178.122L195.525 168.214L199.29 168.245L199.205 178.143Z" fill="#FFB6B6"/>
<path d="M191.035 182.134C191.03 182.752 191.536 183.26 192.166 183.266L197.237 183.308L198.125 181.537L198.451 183.317L200.364 183.334L199.881 176.985L199.215 176.942L196.5 176.757L195.624 176.7L195.608 178.496L191.535 181.215C191.225 181.422 191.038 181.766 191.035 182.134V182.134Z" fill="#2F2E41"/>
<path d="M157.149 35.3789C158.222 36.3624 158.121 38.1238 156.941 38.9784L159.849 50.4252L156.83 51.9954L153.476 38.375C152.887 37.4787 152.971 36.2715 153.752 35.4637C154.666 34.5169 156.187 34.479 157.149 35.3789H157.149Z" fill="#FFB6B6"/>
<path d="M172.102 99.9932H193.376C193.376 99.9932 199.871 109.364 198.389 118.111L195.304 143.987L201.846 174.236L195.55 174.843L184.688 143.987L183.207 125.278L180.491 145.444L172.102 173.932L166.049 173.993L169.629 145.201L171.113 118.072C171.113 118.072 172.02 116.194 171.256 115.451C170.493 114.709 171.369 113.391 171.369 113.391C171.369 113.391 172.539 111.569 171.516 110.709C170.493 109.85 172.102 99.9932 172.102 99.9932Z" fill="#2F2E41"/>
<path d="M200.837 107.663C200.837 107.663 181.581 102.561 182.321 108.392C182.649 110.973 171.908 109.342 168.592 108.958L171.829 95.1503L166.462 108.674C165.484 108.523 164.877 108.406 164.877 108.406L171.952 91.3844C171.952 91.3844 172.693 74.8628 171.175 70.8125C169.656 66.7623 173.434 65.1442 173.434 65.1442C177.165 62.4198 178.946 59.7287 177.361 57.0947L185.531 57.7872L186.271 61.7426L193.218 65.0713L189.833 84.776C189.833 84.776 189.393 85.2544 189.683 85.6468C189.974 86.0392 190.025 86.3516 189.506 86.6813C188.987 87.011 189.229 88.2939 189.229 88.2939C189.229 88.2939 189.253 89.0872 189.737 89.1424C190.221 89.1977 190.056 89.6748 190.056 89.6748C190.056 89.6748 190.025 90.6379 190.493 90.4037C190.808 90.2464 197.796 103.469 198.329 103.258C198.862 103.047 198.678 104.606 199.14 104.677C199.602 104.747 199.606 105.493 199.805 105.844C200.441 106.963 200.837 107.663 200.837 107.663V107.663Z" fill="#7936FC"/>
<path d="M179.017 71.8448L179.856 64.1339L168.902 61.53L157.902 41.5767L154.446 43.0345V46.436C154.446 46.436 151.483 49.3515 161.475 63.2219L164.321 67.088L179.856 74.268L179.017 71.8448V71.8448Z" fill="#7936FC"/>
<path d="M169.606 25.9684C169.241 27.3654 170.29 28.7962 171.752 28.8902L175.568 40.076L178.971 39.798L174.341 26.5451C174.346 25.4777 173.615 24.5051 172.515 24.2383C171.226 23.9255 169.924 24.7001 169.606 25.9684L169.606 25.9684Z" fill="#FFB6B6"/>
<path d="M192.996 67.844C195.787 66.0448 196.13 62.1488 193.695 59.9037L181.949 49.0715C181.949 49.0715 182.392 32.1031 177.826 32.0617L176.839 29.0269L171.529 31.5208L172.175 34.0291C172.175 34.0291 172.522 44.4089 175.642 47.5043C175.698 51.8768 177.56 53.0357 177.56 53.0357L192.996 67.844Z" fill="#7936FC"/>
<path d="M182.443 56.7908C186.308 56.7908 189.442 53.7068 189.442 49.9025C189.442 46.0982 186.308 43.0142 182.443 43.0142C178.577 43.0142 175.443 46.0982 175.443 49.9025C175.443 53.7068 178.577 56.7908 182.443 56.7908Z" fill="#FFB6B6"/>
<path d="M199.449 68.5419C199.399 69.5313 198.918 70.4811 198.027 70.9345C197.745 71.0734 197.449 71.1793 197.143 71.2554C197.133 71.1562 197.116 71.0602 197.099 70.9642C196.82 69.3362 196.127 67.7842 195.115 66.4737C194.635 65.8516 195.966 69.3791 196.302 71.3646C195.996 70.7624 194.44 66.8973 194.339 66.7518C194.339 66.7584 194.345 66.7783 194.359 66.8212C194.863 68.3202 195.092 69.9086 195.055 71.4903C193.105 74.2269 191.407 74.9648 189.843 74.6572C190.314 73.4063 190.264 71.9569 189.628 70.7723C189.453 71.9371 188.838 73.0191 187.957 73.8133C187.217 73.3071 186.498 72.6352 185.782 71.9238C186.908 70.5903 187.688 68.9788 188.011 67.2746C188.471 64.8888 188.031 62.3441 186.797 60.2428C187.392 64.5081 185.735 68.992 182.577 71.9569C181.831 71.8445 181.158 71.5532 180.859 70.898C180.58 70.2825 180.768 69.5545 181.121 68.9788C181.468 68.4029 180.254 65.6201 180.661 65.084C182.362 62.8536 183.979 61.7815 182.157 59.6471C181.32 58.6644 180.153 57.9098 179.652 56.7251C179.02 55.2328 179.628 53.5287 180.362 52.086C181.098 50.6398 183.549 51.3149 181.908 51.1824C179.087 50.9575 180.318 48.704 179.699 47.7643C179.353 47.238 178.499 47.3241 177.86 47.3175C177.635 46.573 177.319 45.8515 176.922 45.1765C177.023 45.9078 177.06 46.6491 177.033 47.387C176.522 47.473 175.691 48.3169 175.251 48.5882L175.089 48.6643C174.467 48.3135 174.56 47.6577 174.556 46.9496C174.549 46.2414 173.164 45.5632 173.548 44.9642C174.566 43.3791 174.239 42.4862 176.128 42.2447C178.018 42.0031 179.776 41.2983 181.172 42.5756C182.517 39.9283 187.752 42.2645 189.016 42.7641C190.28 43.2671 191.299 44.3327 191.729 45.6034C192.731 48.5484 192.224 49.9052 193.949 52.5028C195.425 54.7264 197.513 53.6775 198.491 56.1527C199.107 57.7146 198.373 59.4419 197.721 60.9874C197.069 62.5359 195.721 66.06 197.402 65.8086C198.834 65.5902 199.53 66.9933 199.449 68.5419V68.5419Z" fill="#2F2E41"/>
<path d="M206.055 178.105C206.75 178.148 207.134 177.298 206.608 176.803L206.556 176.599C206.563 176.582 206.57 176.566 206.577 176.549C207.279 174.901 209.66 174.912 210.356 176.563C210.974 178.029 211.762 179.496 211.955 181.046C212.042 181.73 212.003 182.426 211.849 183.098C213.297 179.983 214.06 176.583 214.06 173.163C214.06 172.304 214.012 171.445 213.914 170.588C213.834 169.887 213.723 169.19 213.58 168.5C212.804 164.768 211.126 161.214 208.704 158.245C207.54 157.619 206.57 156.64 205.983 155.467C205.773 155.043 205.607 154.588 205.529 154.124C205.662 154.142 206.029 152.156 205.929 152.034C206.113 151.758 206.444 151.621 206.646 151.352C207.648 150.014 209.03 150.248 209.751 152.066C211.292 152.831 211.307 154.101 210.361 155.321C209.76 156.098 209.677 157.149 209.15 157.98C209.204 158.048 209.26 158.115 209.315 158.183C210.31 159.44 211.171 160.791 211.897 162.21C211.692 160.633 211.995 158.733 212.511 157.508C213.099 156.112 214.201 154.937 215.171 153.73C216.336 152.281 218.726 152.914 218.931 154.751C218.933 154.769 218.935 154.786 218.937 154.804C218.793 154.884 218.652 154.969 218.514 155.059C217.727 155.571 217.999 156.771 218.931 156.913L218.952 156.916C218.9 157.427 218.811 157.933 218.681 158.431C219.926 163.168 217.239 164.894 213.402 164.971C213.317 165.014 213.234 165.057 213.15 165.097C213.538 166.174 213.849 167.279 214.079 168.399C214.286 169.389 214.429 170.389 214.509 171.394C214.609 172.661 214.6 173.935 214.492 175.2L214.498 175.155C214.774 173.762 215.543 172.46 216.659 171.558C218.322 170.214 220.671 169.719 222.465 168.638C223.329 168.118 224.436 168.79 224.285 169.776L224.277 169.823C224.01 169.93 223.75 170.054 223.498 170.193C223.354 170.273 223.213 170.358 223.075 170.447C222.288 170.959 222.56 172.159 223.492 172.301L223.513 172.304C223.528 172.306 223.541 172.308 223.556 172.311C223.098 173.381 222.46 174.375 221.661 175.232C220.882 179.368 217.54 179.76 213.964 178.556H213.962C213.571 180.231 213 181.869 212.266 183.429H206.207C206.185 183.363 206.166 183.294 206.146 183.228C206.706 183.262 207.271 183.23 207.823 183.13C207.373 182.587 206.924 182.04 206.474 181.497C206.463 181.486 206.454 181.475 206.446 181.465C206.218 181.187 205.988 180.911 205.76 180.633L205.759 180.633C205.745 179.78 205.849 178.93 206.055 178.105L206.055 178.105Z" fill="#F2F2F2"/>
<path d="M138.354 183.447C138.354 183.665 138.532 183.84 138.754 183.84H223.918C224.14 183.84 224.318 183.665 224.318 183.447C224.318 183.228 224.14 183.053 223.918 183.053H138.754C138.532 183.053 138.354 183.228 138.354 183.447Z" fill="#CCCCCC"/>
</svg>
